<svg xmlns="http://www.w3.org/2000/svg" xmlns:xlink="http://www.w3.org/1999/xlink" viewBox="58.400002044 237.06667496400001 558.66668622 190.66667334" id="svg1" version="1.1" style="max-height: 500px" width="558.66668622" height="190.66667334">
  <defs id="defs1">
    
    <clipPath id="clipPath3" clipPathUnits="userSpaceOnUse">
      <path id="path3" transform="translate(-199.6705,-220.18091)" d="M 0,500 H 500 V 0 H 0 Z"/>
    </clipPath>
    <clipPath id="clipPath5" clipPathUnits="userSpaceOnUse">
      <path id="path5" transform="translate(-223.26331,-217.42281)" d="M 0,500 H 500 V 0 H 0 Z"/>
    </clipPath>
    <clipPath id="clipPath7" clipPathUnits="userSpaceOnUse">
      <path id="path7" transform="translate(-238.43901,-217.42281)" d="M 0,500 H 500 V 0 H 0 Z"/>
    </clipPath>
    <clipPath id="clipPath9" clipPathUnits="userSpaceOnUse">
      <path id="path9" transform="translate(-243.12421,-228.71141)" d="M 0,500 H 500 V 0 H 0 Z"/>
    </clipPath>
    <clipPath id="clipPath11" clipPathUnits="userSpaceOnUse">
      <path id="path11" transform="translate(-256.4668,-217.49661)" d="M 0,500 H 500 V 0 H 0 Z"/>
    </clipPath>
    <clipPath id="clipPath13" clipPathUnits="userSpaceOnUse">
      <path id="path13" transform="translate(-269.8099,-217.49661)" d="M 0,500 H 500 V 0 H 0 Z"/>
    </clipPath>
    <clipPath id="clipPath15" clipPathUnits="userSpaceOnUse">
      <path id="path15" transform="translate(-290.91861,-216.89001)" d="M 0,500 H 500 V 0 H 0 Z"/>
    </clipPath>
    <clipPath id="clipPath17" clipPathUnits="userSpaceOnUse">
      <path id="path17" transform="translate(-302.71801,-228.72971)" d="M 0,500 H 500 V 0 H 0 Z"/>
    </clipPath>
    <clipPath id="clipPath19" clipPathUnits="userSpaceOnUse">
      <path id="path19" transform="translate(-317.91831,-228.71141)" d="M 0,500 H 500 V 0 H 0 Z"/>
    </clipPath>
    <clipPath id="clipPath21" clipPathUnits="userSpaceOnUse">
      <path id="path21" transform="translate(-325.47271,-228.71141)" d="M 0,500 H 500 V 0 H 0 Z"/>
    </clipPath>
    <clipPath id="clipPath23" clipPathUnits="userSpaceOnUse">
      <path id="path23" transform="translate(-338.81531,-217.49661)" d="M 0,500 H 500 V 0 H 0 Z"/>
    </clipPath>
    <clipPath id="clipPath25" clipPathUnits="userSpaceOnUse">
      <path id="path25" transform="translate(-369.78811,-217.42281)" d="M 0,500 H 500 V 0 H 0 Z"/>
    </clipPath>
    <clipPath id="clipPath27" clipPathUnits="userSpaceOnUse">
      <path id="path27" transform="translate(-380.57491,-216.89001)" d="M 0,500 H 500 V 0 H 0 Z"/>
    </clipPath>
    <clipPath id="clipPath29" clipPathUnits="userSpaceOnUse">
      <path id="path29" transform="translate(-391.04781,-215.49261)" d="M 0,500 H 500 V 0 H 0 Z"/>
    </clipPath>
    <clipPath id="clipPath31" clipPathUnits="userSpaceOnUse">
      <path id="path31" transform="translate(-403.73941,-228.71141)" d="M 0,500 H 500 V 0 H 0 Z"/>
    </clipPath>
    <clipPath id="clipPath33" clipPathUnits="userSpaceOnUse">
      <path id="path33" transform="translate(-416.13621,-227.07531)" d="M 0,500 H 500 V 0 H 0 Z"/>
    </clipPath>
    <clipPath id="clipPath35" clipPathUnits="userSpaceOnUse">
      <path id="path35" transform="translate(-430.25651,-217.03701)" d="M 0,500 H 500 V 0 H 0 Z"/>
    </clipPath>
    <clipPath id="clipPath37" clipPathUnits="userSpaceOnUse">
      <path id="path37" transform="translate(-444.20251,-215.49261)" d="M 0,500 H 500 V 0 H 0 Z"/>
    </clipPath>
    <clipPath id="clipPath39" clipPathUnits="userSpaceOnUse">
      <path id="path39" transform="translate(-200.0056,-283.3167)" d="M 0,500 H 500 V 0 H 0 Z"/>
    </clipPath>
    <clipPath id="clipPath41" clipPathUnits="userSpaceOnUse">
      <path id="path41" transform="translate(-268.37851,-284.3499)" d="M 0,500 H 500 V 0 H 0 Z"/>
    </clipPath>
    <clipPath id="clipPath43" clipPathUnits="userSpaceOnUse">
      <path id="path43" transform="translate(-299.96901,-284.41391)" d="M 0,500 H 500 V 0 H 0 Z"/>
    </clipPath>
    <clipPath id="clipPath45" clipPathUnits="userSpaceOnUse">
      <path id="path45" transform="translate(-371.17021,-276.68921)" d="M 0,500 H 500 V 0 H 0 Z"/>
    </clipPath>
    <clipPath id="clipPath47" clipPathUnits="userSpaceOnUse">
      <path id="path47" transform="translate(-406.34961,-279.73971)" d="M 0,500 H 500 V 0 H 0 Z"/>
    </clipPath>
    <clipPath id="clipPath49" clipPathUnits="userSpaceOnUse">
      <path id="path49" transform="translate(-329.63051,-284.38671)" d="M 0,500 H 500 V 0 H 0 Z"/>
    </clipPath>
    <clipPath id="clipPath51" clipPathUnits="userSpaceOnUse">
      <path id="path51" transform="translate(-325.86741,-240.30291)" d="M 0,500 H 500 V 0 H 0 Z"/>
    </clipPath>
    <clipPath id="clipPath53" clipPathUnits="userSpaceOnUse">
      <path id="path53" transform="translate(-324.95921,-279.21431)" d="M 0,500 H 500 V 0 H 0 Z"/>
    </clipPath>
    <clipPath id="clipPath55" clipPathUnits="userSpaceOnUse">
      <path id="path55" transform="translate(-324.87411,-278.103)" d="M 0,500 H 500 V 0 H 0 Z"/>
    </clipPath>
    <clipPath id="clipPath57" clipPathUnits="userSpaceOnUse">
      <path id="path57" transform="translate(-324.60841,-274.9029)" d="M 0,500 H 500 V 0 H 0 Z"/>
    </clipPath>
    <clipPath id="clipPath59" clipPathUnits="userSpaceOnUse">
      <path id="path59" transform="translate(-324.34091,-271.71621)" d="M 0,500 H 500 V 0 H 0 Z"/>
    </clipPath>
    <clipPath id="clipPath61" clipPathUnits="userSpaceOnUse">
      <path id="path61" transform="translate(-324.01791,-268.48931)" d="M 0,500 H 500 V 0 H 0 Z"/>
    </clipPath>
    <clipPath id="clipPath63" clipPathUnits="userSpaceOnUse">
      <path id="path63" transform="translate(-324.99561,-265.45661)" d="M 0,500 H 500 V 0 H 0 Z"/>
    </clipPath>
    <clipPath id="clipPath65" clipPathUnits="userSpaceOnUse">
      <path id="path65" transform="translate(-333.02571,-263.82141)" d="M 0,500 H 500 V 0 H 0 Z"/>
    </clipPath>
    <clipPath id="clipPath67" clipPathUnits="userSpaceOnUse">
      <path id="path67" transform="translate(-323.66021,-264.60981)" d="M 0,500 H 500 V 0 H 0 Z"/>
    </clipPath>
    <clipPath id="clipPath69" clipPathUnits="userSpaceOnUse">
      <path id="path69" transform="translate(-323.39101,-261.5151)" d="M 0,500 H 500 V 0 H 0 Z"/>
    </clipPath>
    <clipPath id="clipPath71" clipPathUnits="userSpaceOnUse">
      <path id="path71" transform="translate(-323.13401,-258.42051)" d="M 0,500 H 500 V 0 H 0 Z"/>
    </clipPath>
    <clipPath id="clipPath73" clipPathUnits="userSpaceOnUse">
      <path id="path73" transform="translate(-322.86141,-255.3309)" d="M 0,500 H 500 V 0 H 0 Z"/>
    </clipPath>
    <clipPath id="clipPath75" clipPathUnits="userSpaceOnUse">
      <path id="path75" transform="translate(-322.20661,-247.7139)" d="M 0,500 H 500 V 0 H 0 Z"/>
    </clipPath>
    <clipPath id="clipPath77" clipPathUnits="userSpaceOnUse">
      <path id="path77" transform="translate(-322.58871,-252.2346)" d="M 0,500 H 500 V 0 H 0 Z"/>
    </clipPath>
    <clipPath id="clipPath79" clipPathUnits="userSpaceOnUse">
      <path id="path79" transform="translate(-321.84191,-244.36491)" d="M 0,500 H 500 V 0 H 0 Z"/>
    </clipPath>
    <clipPath id="clipPath81" clipPathUnits="userSpaceOnUse">
      <path id="path81" transform="translate(-324.56841,-241.93641)" d="M 0,500 H 500 V 0 H 0 Z"/>
    </clipPath>
    <clipPath id="clipPath83" clipPathUnits="userSpaceOnUse">
      <path id="path83" transform="translate(-333.88181,-241.359)" d="M 0,500 H 500 V 0 H 0 Z"/>
    </clipPath>
    <clipPath id="clipPath85" clipPathUnits="userSpaceOnUse">
      <path id="path85" transform="translate(-101.5098,-283.55961)" d="M 0,500 H 500 V 0 H 0 Z"/>
    </clipPath>
    <clipPath id="clipPath87" clipPathUnits="userSpaceOnUse">
      <path id="path87" transform="translate(-106.9653,-279.2094)" d="M 0,500 H 500 V 0 H 0 Z"/>
    </clipPath>
    <clipPath id="clipPath89" clipPathUnits="userSpaceOnUse">
      <path id="path89" transform="translate(-122.85441,-215.42351)" d="M 0,500 H 500 V 0 H 0 Z"/>
    </clipPath>
    <clipPath id="clipPath91" clipPathUnits="userSpaceOnUse">
      <path id="path91" transform="translate(-69.902002,-246.2643)" d="M 0,500 H 500 V 0 H 0 Z"/>
    </clipPath>
    <clipPath id="clipPath93" clipPathUnits="userSpaceOnUse">
      <path id="path93" transform="translate(-160.8658,-247.90001)" d="M 0,500 H 500 V 0 H 0 Z"/>
    </clipPath>
  </defs>
  
    
  
  <g id="layer-MC0">
    <path transform="matrix(1.3333333,0,0,-1.3333333,0,666.66667)" style="fill:#ffffff;fill-opacity:1;fill-rule:nonzero;stroke:none" d="M 0,0 H 500 V 500 H 0 Z" id="path1"/>
    <path clip-path="url(#clipPath3)" transform="matrix(1.3333333,0,0,-1.3333333,266.22733,373.09213)" style="fill:#00019a;fill-opacity:1;fill-rule:nonzero;stroke:none" d="M 0,0 H 5.282 L 2.629,6.747 Z m 5.933,-1.637 h -6.584 l -1.182,-3.051 c -0.209,-0.025 -0.418,-0.043 -0.627,-0.055 -0.209,-0.013 -0.418,-0.019 -0.627,-0.019 -0.225,0 -0.446,0.006 -0.663,0.019 -0.217,0.012 -0.415,0.03 -0.591,0.055 L 1.302,8.53 c 0.209,0.025 0.435,0.044 0.676,0.056 0.241,0.012 0.49,0.018 0.747,0.018 0.225,0 0.459,-0.006 0.7,-0.018 C 3.666,8.574 3.899,8.555 4.124,8.53 L 9.744,-4.688 C 9.551,-4.713 9.333,-4.731 9.092,-4.743 8.851,-4.756 8.618,-4.762 8.393,-4.762 c -0.209,0 -0.422,0.006 -0.639,0.019 -0.217,0.012 -0.422,0.03 -0.615,0.055 z" id="path2"/>
    <path clip-path="url(#clipPath5)" transform="matrix(1.3333333,0,0,-1.3333333,297.6844,376.7696)" style="fill:#00019a;fill-opacity:1;fill-rule:nonzero;stroke:none" d="M 0,0 C 0.353,-0.527 0.579,-1.036 0.676,-1.526 0,-1.747 -0.691,-1.906 -1.399,-2.004 -2.107,-2.102 -2.87,-2.151 -3.69,-2.151 c -1.254,0 -2.384,0.157 -3.388,0.469 -1.005,0.313 -1.854,0.76 -2.545,1.342 -0.691,0.582 -1.222,1.29 -1.592,2.124 -0.369,0.833 -0.554,1.77 -0.554,2.812 0,1.054 0.185,2.007 0.554,2.859 0.37,0.852 0.901,1.578 1.592,2.179 0.691,0.6 1.535,1.063 2.532,1.388 0.997,0.325 2.115,0.487 3.353,0.487 0.916,0 1.704,-0.049 2.363,-0.147 0.659,-0.098 1.246,-0.215 1.761,-0.349 C 0.353,10.731 0.285,10.47 0.181,10.232 0.076,9.992 -0.048,9.738 -0.193,9.468 -0.434,9.53 -0.667,9.585 -0.892,9.634 -1.118,9.683 -1.359,9.726 -1.616,9.762 -1.873,9.8 -2.158,9.827 -2.472,9.845 -2.786,9.864 -3.144,9.873 -3.545,9.873 -5.298,9.873 -6.66,9.419 -7.633,8.513 -8.606,7.605 -9.092,6.3 -9.092,4.596 c 0,-0.87 0.136,-1.624 0.41,-2.261 0.273,-0.638 0.659,-1.164 1.158,-1.581 0.497,-0.417 1.097,-0.729 1.796,-0.938 0.699,-0.208 1.484,-0.312 2.352,-0.312 0.675,0 1.286,0.042 1.832,0.129 C -0.997,-0.282 -0.482,-0.159 0,0" id="path4"/>
    <path clip-path="url(#clipPath7)" transform="matrix(1.3333333,0,0,-1.3333333,317.91867,376.7696)" style="fill:#00019a;fill-opacity:1;fill-rule:nonzero;stroke:none" d="M 0,0 C 0.353,-0.527 0.579,-1.036 0.676,-1.526 0,-1.747 -0.691,-1.906 -1.399,-2.004 -2.107,-2.102 -2.87,-2.151 -3.69,-2.151 c -1.254,0 -2.384,0.157 -3.388,0.469 -1.005,0.313 -1.854,0.76 -2.545,1.342 -0.691,0.582 -1.222,1.29 -1.592,2.124 -0.369,0.833 -0.554,1.77 -0.554,2.812 0,1.054 0.185,2.007 0.554,2.859 0.37,0.852 0.901,1.578 1.592,2.179 0.691,0.6 1.535,1.063 2.532,1.388 0.997,0.325 2.115,0.487 3.353,0.487 0.916,0 1.704,-0.049 2.363,-0.147 0.659,-0.098 1.246,-0.215 1.761,-0.349 C 0.353,10.731 0.285,10.47 0.181,10.232 0.076,9.992 -0.048,9.738 -0.193,9.468 -0.434,9.53 -0.667,9.585 -0.892,9.634 -1.118,9.683 -1.359,9.726 -1.616,9.762 -1.873,9.8 -2.158,9.827 -2.472,9.845 -2.786,9.864 -3.144,9.873 -3.545,9.873 -5.298,9.873 -6.66,9.419 -7.633,8.513 -8.606,7.605 -9.092,6.3 -9.092,4.596 c 0,-0.87 0.136,-1.624 0.41,-2.261 0.273,-0.638 0.659,-1.164 1.158,-1.581 0.497,-0.417 1.097,-0.729 1.796,-0.938 0.699,-0.208 1.484,-0.312 2.352,-0.312 0.675,0 1.286,0.042 1.832,0.129 C -0.997,-0.282 -0.482,-0.159 0,0" id="path6"/>
    <path clip-path="url(#clipPath9)" transform="matrix(1.3333333,0,0,-1.3333333,324.1656,361.71813)" style="fill:#00019a;fill-opacity:1;fill-rule:nonzero;stroke:none" d="M 0,0 H 9.526 C 9.575,-0.245 9.599,-0.515 9.599,-0.809 9.599,-0.944 9.595,-1.084 9.586,-1.232 9.578,-1.379 9.558,-1.514 9.526,-1.636 H 2.46 V -5.424 H 8.103 C 8.135,-5.546 8.16,-5.678 8.176,-5.819 8.191,-5.96 8.2,-6.098 8.2,-6.232 8.2,-6.367 8.191,-6.508 8.176,-6.655 8.16,-6.802 8.135,-6.937 8.103,-7.06 H 2.46 v -4.523 h 7.259 c 0.048,-0.245 0.072,-0.514 0.072,-0.808 0,-0.135 -0.004,-0.276 -0.011,-0.423 -0.009,-0.147 -0.029,-0.282 -0.061,-0.405 l -9.719,0 z" id="path8"/>
    <path clip-path="url(#clipPath11)" transform="matrix(1.3333333,0,0,-1.3333333,341.95573,376.6712)" style="fill:#00019a;fill-opacity:1;fill-rule:nonzero;stroke:none" d="m 0,0 c 0.531,-0.147 1.085,-0.276 1.664,-0.386 0.579,-0.11 1.286,-0.166 2.123,-0.166 1.318,0 2.303,0.206 2.954,0.616 0.651,0.411 0.977,0.965 0.977,1.664 0,0.343 -0.069,0.637 -0.205,0.883 C 7.376,2.856 7.171,3.067 6.898,3.245 6.624,3.422 6.283,3.585 5.873,3.732 5.463,3.879 4.984,4.038 4.438,4.21 L 3.063,4.633 C 2.596,4.78 2.171,4.943 1.785,5.12 1.399,5.298 1.065,5.515 0.784,5.773 0.502,6.03 0.281,6.327 0.121,6.664 -0.04,7.002 -0.12,7.403 -0.12,7.869 c 0,1.115 0.498,1.988 1.495,2.62 0.996,0.631 2.395,0.947 4.196,0.947 0.772,0 1.503,-0.05 2.195,-0.147 C 8.457,11.19 9.068,11.068 9.599,10.921 9.518,10.406 9.342,9.897 9.068,9.395 8.634,9.517 8.131,9.627 7.561,9.726 6.99,9.824 6.343,9.873 5.62,9.873 4.607,9.873 3.827,9.717 3.28,9.404 2.734,9.091 2.46,8.623 2.46,7.998 2.46,7.74 2.528,7.51 2.665,7.308 2.802,7.106 2.982,6.928 3.208,6.775 3.433,6.621 3.698,6.483 4.004,6.361 4.309,6.239 4.631,6.128 4.968,6.03 L 6.319,5.626 C 6.962,5.43 7.533,5.224 8.031,5.01 8.529,4.795 8.955,4.544 9.309,4.256 9.663,3.968 9.932,3.628 10.118,3.236 10.302,2.843 10.395,2.384 10.395,1.857 10.395,0.594 9.824,-0.402 8.682,-1.131 7.54,-1.86 5.941,-2.225 3.883,-2.225 c -0.499,0 -0.949,0.013 -1.351,0.037 -0.402,0.025 -0.776,0.062 -1.121,0.11 -0.346,0.05 -0.68,0.111 -1.001,0.184 -0.322,0.074 -0.651,0.153 -0.989,0.239 0.033,0.27 0.105,0.545 0.217,0.828 C -0.249,-0.546 -0.129,-0.27 0,0" id="path10"/>
    <path clip-path="url(#clipPath13)" transform="matrix(1.3333333,0,0,-1.3333333,359.74653,376.6712)" style="fill:#00019a;fill-opacity:1;fill-rule:nonzero;stroke:none" d="m 0,0 c 0.531,-0.147 1.085,-0.276 1.664,-0.386 0.579,-0.11 1.286,-0.166 2.123,-0.166 1.318,0 2.303,0.206 2.954,0.616 0.651,0.411 0.977,0.965 0.977,1.664 0,0.343 -0.069,0.637 -0.205,0.883 C 7.376,2.856 7.171,3.067 6.898,3.245 6.624,3.422 6.283,3.585 5.873,3.732 5.463,3.879 4.984,4.038 4.438,4.21 L 3.063,4.633 C 2.596,4.78 2.171,4.943 1.785,5.12 1.399,5.298 1.065,5.515 0.784,5.773 0.502,6.03 0.281,6.327 0.121,6.664 -0.04,7.002 -0.12,7.403 -0.12,7.869 c 0,1.115 0.497,1.988 1.495,2.62 0.996,0.631 2.395,0.947 4.196,0.947 0.772,0 1.503,-0.05 2.195,-0.147 C 8.457,11.19 9.068,11.068 9.599,10.921 9.518,10.406 9.342,9.897 9.068,9.395 8.634,9.517 8.131,9.627 7.561,9.726 6.99,9.824 6.343,9.873 5.62,9.873 4.607,9.873 3.826,9.717 3.28,9.404 2.733,9.091 2.46,8.623 2.46,7.998 2.46,7.74 2.528,7.51 2.665,7.308 2.802,7.106 2.982,6.928 3.208,6.775 3.433,6.621 3.698,6.483 4.004,6.361 4.309,6.239 4.631,6.128 4.968,6.03 L 6.319,5.626 C 6.962,5.43 7.533,5.224 8.031,5.01 8.529,4.795 8.955,4.544 9.309,4.256 9.663,3.968 9.932,3.628 10.118,3.236 10.302,2.843 10.395,2.384 10.395,1.857 10.395,0.594 9.824,-0.402 8.682,-1.131 7.54,-1.86 5.941,-2.225 3.883,-2.225 c -0.499,0 -0.949,0.013 -1.351,0.037 -0.402,0.025 -0.776,0.062 -1.121,0.11 -0.346,0.05 -0.68,0.111 -1.001,0.184 -0.322,0.074 -0.651,0.153 -0.989,0.239 0.032,0.27 0.105,0.545 0.217,0.828 C -0.249,-0.546 -0.129,-0.27 0,0" id="path12"/>
    <path clip-path="url(#clipPath15)" transform="matrix(1.3333333,0,0,-1.3333333,387.89147,377.48)" style="fill:#00019a;fill-opacity:1;fill-rule:nonzero;stroke:none" d="M 0,0 C 0.804,0 1.499,0.12 2.086,0.358 2.673,0.597 3.16,0.943 3.545,1.397 3.931,1.851 4.22,2.396 4.413,3.033 4.607,3.671 4.703,4.394 4.703,5.203 4.703,6 4.607,6.72 4.413,7.363 4.22,8.007 3.931,8.552 3.545,8.999 3.16,9.447 2.673,9.79 2.086,10.029 1.499,10.268 0.804,10.387 0,10.387 c -0.804,0 -1.499,-0.119 -2.086,-0.358 C -2.673,9.79 -3.159,9.447 -3.545,8.999 -3.931,8.552 -4.22,8.007 -4.413,7.363 -4.607,6.72 -4.703,6 -4.703,5.203 c 0,-0.809 0.096,-1.532 0.29,-2.17 0.193,-0.637 0.482,-1.182 0.868,-1.636 0.386,-0.454 0.872,-0.8 1.459,-1.039 C -1.499,0.12 -0.804,0 0,0 m 0,-1.618 c -1.254,0 -2.339,0.169 -3.256,0.506 -0.916,0.336 -1.676,0.809 -2.279,1.415 -0.603,0.607 -1.053,1.327 -1.351,2.161 -0.297,0.833 -0.446,1.746 -0.446,2.739 0,0.993 0.149,1.905 0.446,2.739 0.298,0.834 0.748,1.554 1.351,2.16 0.603,0.607 1.363,1.082 2.279,1.425 0.917,0.343 2.002,0.515 3.256,0.515 1.254,0 2.34,-0.172 3.256,-0.515 C 4.172,11.184 4.932,10.709 5.535,10.102 6.138,9.496 6.584,8.776 6.873,7.942 7.163,7.108 7.308,6.196 7.308,5.203 7.308,4.21 7.163,3.297 6.873,2.464 6.584,1.63 6.138,0.91 5.535,0.303 4.932,-0.303 4.172,-0.776 3.256,-1.112 2.34,-1.449 1.254,-1.618 0,-1.618" id="path14"/>
    <path clip-path="url(#clipPath17)" transform="matrix(1.3333333,0,0,-1.3333333,403.624,361.69373)" style="fill:#00019a;fill-opacity:1;fill-rule:nonzero;stroke:none" d="m 0,0 c 0.353,0.025 0.675,0.049 0.964,0.074 0.29,0.024 0.575,0.046 0.857,0.064 0.281,0.018 0.574,0.034 0.88,0.046 0.306,0.012 0.643,0.018 1.013,0.018 0.82,0 1.632,-0.061 2.436,-0.184 0.804,-0.122 1.519,-0.337 2.146,-0.643 0.627,-0.306 1.138,-0.72 1.532,-1.241 0.394,-0.521 0.591,-1.18 0.591,-1.977 0,-0.477 -0.105,-0.913 -0.314,-1.305 C 9.896,-5.54 9.631,-5.89 9.309,-6.196 8.987,-6.502 8.622,-6.769 8.212,-6.996 7.802,-7.222 7.404,-7.409 7.018,-7.556 l -0.289,-0.11 5.04,-5.571 c -0.434,-0.037 -0.925,-0.055 -1.471,-0.055 -0.434,0 -0.868,0.018 -1.302,0.055 l -5.547,6.122 v 0.074 l 0.193,0.036 c 0.434,0.086 0.892,0.203 1.374,0.35 0.483,0.147 0.929,0.34 1.339,0.579 0.41,0.239 0.751,0.527 1.025,0.864 0.273,0.337 0.41,0.744 0.41,1.222 0,0.883 -0.342,1.538 -1.025,1.968 -0.684,0.429 -1.604,0.643 -2.762,0.643 -0.273,0 -0.526,-0.006 -0.759,-0.018 C 3.011,-1.409 2.749,-1.428 2.46,-1.452 v -11.785 c -0.177,-0.012 -0.374,-0.024 -0.591,-0.037 -0.217,-0.012 -0.422,-0.018 -0.615,-0.018 -0.193,0 -0.402,0.003 -0.627,0.009 -0.225,0.006 -0.434,0.022 -0.627,0.046 z" id="path16"/>
    <path clip-path="url(#clipPath19)" transform="matrix(1.3333333,0,0,-1.3333333,423.89107,361.71813)" style="fill:#00019a;fill-opacity:1;fill-rule:nonzero;stroke:none" d="M 0,0 C 0.193,0.024 0.394,0.043 0.603,0.055 0.812,0.067 1.021,0.074 1.23,0.074 1.439,0.074 1.648,0.067 1.857,0.055 2.066,0.043 2.267,0.024 2.46,0 v -13.219 c -0.193,-0.024 -0.39,-0.042 -0.591,-0.055 -0.201,-0.012 -0.414,-0.019 -0.639,-0.019 -0.209,0 -0.422,0.007 -0.639,0.019 -0.217,0.013 -0.414,0.031 -0.591,0.055 z" id="path18"/>
    <path clip-path="url(#clipPath21)" transform="matrix(1.3333333,0,0,-1.3333333,433.9636,361.71813)" style="fill:#00019a;fill-opacity:1;fill-rule:nonzero;stroke:none" d="M 0,0 H 9.526 C 9.575,-0.245 9.599,-0.515 9.599,-0.809 9.599,-0.944 9.595,-1.084 9.586,-1.232 9.578,-1.379 9.558,-1.514 9.526,-1.636 H 2.46 V -5.424 H 8.103 C 8.135,-5.546 8.16,-5.678 8.176,-5.819 8.191,-5.96 8.2,-6.098 8.2,-6.232 8.2,-6.367 8.191,-6.508 8.176,-6.655 8.16,-6.802 8.135,-6.937 8.103,-7.06 H 2.46 v -4.523 h 7.259 c 0.048,-0.245 0.072,-0.514 0.072,-0.808 0,-0.135 -0.004,-0.276 -0.011,-0.423 -0.009,-0.147 -0.029,-0.282 -0.061,-0.405 l -9.719,0 z" id="path20"/>
    <path clip-path="url(#clipPath23)" transform="matrix(1.3333333,0,0,-1.3333333,451.75373,376.6712)" style="fill:#00019a;fill-opacity:1;fill-rule:nonzero;stroke:none" d="m 0,0 c 0.531,-0.147 1.085,-0.276 1.664,-0.386 0.579,-0.11 1.286,-0.166 2.123,-0.166 1.318,0 2.303,0.206 2.954,0.616 0.651,0.411 0.976,0.965 0.976,1.664 0,0.343 -0.068,0.637 -0.204,0.883 C 7.376,2.856 7.171,3.067 6.898,3.245 6.624,3.422 6.283,3.585 5.873,3.732 5.463,3.879 4.984,4.038 4.438,4.21 L 3.063,4.633 C 2.596,4.78 2.171,4.943 1.785,5.12 1.399,5.298 1.065,5.515 0.784,5.773 0.502,6.03 0.281,6.327 0.121,6.664 -0.04,7.002 -0.12,7.403 -0.12,7.869 c 0,1.115 0.497,1.988 1.495,2.62 0.996,0.631 2.395,0.947 4.196,0.947 0.772,0 1.503,-0.05 2.195,-0.147 C 8.457,11.19 9.068,11.068 9.599,10.921 9.518,10.406 9.342,9.897 9.068,9.395 8.634,9.517 8.131,9.627 7.561,9.726 6.99,9.824 6.343,9.873 5.62,9.873 4.607,9.873 3.826,9.717 3.28,9.404 2.733,9.091 2.46,8.623 2.46,7.998 2.46,7.74 2.528,7.51 2.665,7.308 2.802,7.106 2.982,6.928 3.208,6.775 3.433,6.621 3.698,6.483 4.004,6.361 4.309,6.239 4.631,6.128 4.968,6.03 L 6.319,5.626 C 6.962,5.43 7.533,5.224 8.031,5.01 8.529,4.795 8.955,4.544 9.309,4.256 9.663,3.968 9.932,3.628 10.118,3.236 10.302,2.843 10.395,2.384 10.395,1.857 10.395,0.594 9.824,-0.402 8.682,-1.131 7.54,-1.86 5.941,-2.225 3.883,-2.225 c -0.499,0 -0.949,0.013 -1.351,0.037 -0.402,0.025 -0.776,0.062 -1.121,0.11 -0.346,0.05 -0.68,0.111 -1.001,0.184 -0.322,0.074 -0.651,0.153 -0.989,0.239 0.032,0.27 0.105,0.545 0.217,0.828 C -0.249,-0.546 -0.129,-0.27 0,0" id="path22"/>
    <path clip-path="url(#clipPath25)" transform="matrix(1.3333333,0,0,-1.3333333,493.0508,376.7696)" style="fill:#00019a;fill-opacity:1;fill-rule:nonzero;stroke:none" d="M 0,0 C 0.353,-0.527 0.579,-1.036 0.676,-1.526 0,-1.747 -0.691,-1.906 -1.399,-2.004 -2.107,-2.102 -2.87,-2.151 -3.69,-2.151 c -1.254,0 -2.384,0.157 -3.388,0.469 -1.005,0.313 -1.854,0.76 -2.545,1.342 -0.691,0.582 -1.222,1.29 -1.592,2.124 -0.369,0.833 -0.554,1.77 -0.554,2.812 0,1.054 0.185,2.007 0.554,2.859 0.37,0.852 0.901,1.578 1.592,2.179 0.691,0.6 1.535,1.063 2.532,1.388 0.997,0.325 2.115,0.487 3.353,0.487 0.916,0 1.704,-0.049 2.363,-0.147 0.659,-0.098 1.246,-0.215 1.761,-0.349 C 0.353,10.731 0.285,10.47 0.181,10.232 0.076,9.992 -0.048,9.738 -0.193,9.468 -0.434,9.53 -0.667,9.585 -0.892,9.634 -1.118,9.683 -1.359,9.726 -1.616,9.762 -1.873,9.8 -2.158,9.827 -2.472,9.845 -2.786,9.864 -3.144,9.873 -3.545,9.873 -5.298,9.873 -6.66,9.419 -7.633,8.513 -8.606,7.605 -9.092,6.3 -9.092,4.596 c 0,-0.87 0.136,-1.624 0.41,-2.261 0.273,-0.638 0.659,-1.164 1.158,-1.581 0.497,-0.417 1.097,-0.729 1.796,-0.938 0.699,-0.208 1.484,-0.312 2.352,-0.312 0.675,0 1.286,0.042 1.832,0.129 C -0.997,-0.282 -0.482,-0.159 0,0" id="path24"/>
    <path clip-path="url(#clipPath27)" transform="matrix(1.3333333,0,0,-1.3333333,507.4332,377.48)" style="fill:#00019a;fill-opacity:1;fill-rule:nonzero;stroke:none" d="M 0,0 C 0.804,0 1.499,0.12 2.086,0.358 2.673,0.597 3.16,0.943 3.545,1.397 3.931,1.851 4.22,2.396 4.413,3.033 4.607,3.671 4.703,4.394 4.703,5.203 4.703,6 4.607,6.72 4.413,7.363 4.22,8.007 3.931,8.552 3.545,8.999 3.16,9.447 2.673,9.79 2.086,10.029 1.499,10.268 0.804,10.387 0,10.387 c -0.804,0 -1.499,-0.119 -2.086,-0.358 C -2.673,9.79 -3.159,9.447 -3.545,8.999 -3.931,8.552 -4.22,8.007 -4.413,7.363 -4.607,6.72 -4.703,6 -4.703,5.203 c 0,-0.809 0.096,-1.532 0.29,-2.17 0.193,-0.637 0.482,-1.182 0.868,-1.636 0.386,-0.454 0.872,-0.8 1.459,-1.039 C -1.499,0.12 -0.804,0 0,0 m 0,-1.618 c -1.254,0 -2.339,0.169 -3.256,0.506 -0.916,0.336 -1.676,0.809 -2.279,1.415 -0.603,0.607 -1.053,1.327 -1.351,2.161 -0.297,0.833 -0.446,1.746 -0.446,2.739 0,0.993 0.149,1.905 0.446,2.739 0.298,0.834 0.748,1.554 1.351,2.16 0.603,0.607 1.363,1.082 2.279,1.425 0.917,0.343 2.002,0.515 3.256,0.515 1.254,0 2.34,-0.172 3.256,-0.515 C 4.172,11.184 4.932,10.709 5.535,10.102 6.138,9.496 6.584,8.776 6.873,7.942 7.163,7.108 7.308,6.196 7.308,5.203 7.308,4.21 7.163,3.297 6.873,2.464 6.584,1.63 6.138,0.91 5.535,0.303 4.932,-0.303 4.172,-0.776 3.256,-1.112 2.34,-1.449 1.254,-1.618 0,-1.618" id="path26"/>
    <path clip-path="url(#clipPath29)" transform="matrix(1.3333333,0,0,-1.3333333,521.39707,379.3432)" style="fill:#00019a;fill-opacity:1;fill-rule:nonzero;stroke:none" d="m 0,0 c -0.033,0.171 -0.06,0.34 -0.085,0.506 -0.024,0.165 -0.036,0.333 -0.036,0.505 0,0.172 0.012,0.347 0.036,0.524 C -0.06,1.713 -0.033,1.887 0,2.059 0.225,2.084 0.446,2.102 0.663,2.114 0.88,2.126 1.101,2.133 1.327,2.133 1.551,2.133 1.776,2.126 2.002,2.114 2.226,2.102 2.451,2.084 2.677,2.059 2.709,1.887 2.737,1.716 2.761,1.544 2.785,1.373 2.798,1.201 2.798,1.029 2.798,0.858 2.785,0.686 2.761,0.515 2.737,0.343 2.709,0.171 2.677,0 2.451,-0.024 2.231,-0.043 2.014,-0.055 1.797,-0.067 1.575,-0.074 1.351,-0.074 1.125,-0.074 0.9,-0.067 0.675,-0.055 0.45,-0.043 0.225,-0.024 0,0" id="path28"/>
    <path clip-path="url(#clipPath31)" transform="matrix(1.3333333,0,0,-1.3333333,538.3192,361.71813)" style="fill:#00019a;fill-opacity:1;fill-rule:nonzero;stroke:none" d="M 0,0 C 0.177,0.024 0.365,0.043 0.566,0.055 0.767,0.067 0.98,0.074 1.206,0.074 1.415,0.074 1.624,0.067 1.833,0.055 2.042,0.043 2.243,0.024 2.436,0 v -11.564 h 6.801 c 0.032,-0.135 0.052,-0.276 0.06,-0.423 0.008,-0.147 0.012,-0.282 0.012,-0.404 0,-0.295 -0.024,-0.57 -0.072,-0.828 H 0 Z" id="path30"/>
    <path clip-path="url(#clipPath33)" transform="matrix(1.3333333,0,0,-1.3333333,554.84827,363.8996)" style="fill:#00019a;fill-opacity:1;fill-rule:nonzero;stroke:none" d="m 0,0 h -4.51 c -0.033,0.122 -0.057,0.257 -0.072,0.405 -0.017,0.147 -0.025,0.287 -0.025,0.422 0,0.135 0.008,0.273 0.025,0.414 0.015,0.141 0.039,0.272 0.072,0.395 H 6.97 C 7.002,1.513 7.026,1.385 7.042,1.25 7.058,1.115 7.066,0.98 7.066,0.846 7.066,0.711 7.058,0.567 7.042,0.414 7.026,0.26 7.002,0.122 6.97,0 H 2.46 v -11.583 c -0.37,-0.036 -0.772,-0.055 -1.206,-0.055 -0.45,0 -0.868,0.019 -1.254,0.055 z" id="path32"/>
    <path clip-path="url(#clipPath35)" transform="matrix(1.3333333,0,0,-1.3333333,573.67533,377.284)" style="fill:#00019a;fill-opacity:1;fill-rule:nonzero;stroke:none" d="m 0,0 c 0.225,-0.025 0.502,-0.046 0.832,-0.065 0.329,-0.018 0.679,-0.027 1.049,-0.027 0.949,0 1.813,0.083 2.593,0.248 C 5.253,0.322 5.924,0.6 6.487,0.993 7.05,1.385 7.484,1.915 7.79,2.583 8.095,3.251 8.248,4.087 8.248,5.092 8.248,6.012 8.095,6.796 7.79,7.446 7.484,8.095 7.054,8.625 6.5,9.036 5.945,9.447 5.282,9.744 4.51,9.928 3.738,10.112 2.886,10.204 1.953,10.204 1.648,10.204 1.314,10.2 0.953,10.195 0.591,10.188 0.273,10.167 0,10.13 Z m -2.46,11.674 c 0.547,0.049 1.206,0.095 1.978,0.138 0.771,0.043 1.527,0.065 2.266,0.065 3.039,0 5.31,-0.589 6.814,-1.765 1.503,-1.177 2.255,-2.868 2.255,-5.075 0,-2.304 -0.768,-4.014 -2.304,-5.129 -1.535,-1.116 -3.822,-1.673 -6.861,-1.673 -0.756,0 -1.504,0.022 -2.243,0.064 -0.74,0.043 -1.374,0.095 -1.905,0.157 z" id="path34"/>
    <path clip-path="url(#clipPath37)" transform="matrix(1.3333333,0,0,-1.3333333,592.27,379.3432)" style="fill:#00019a;fill-opacity:1;fill-rule:nonzero;stroke:none" d="m 0,0 c -0.033,0.171 -0.06,0.34 -0.085,0.506 -0.024,0.165 -0.036,0.333 -0.036,0.505 0,0.172 0.012,0.347 0.036,0.524 C -0.06,1.713 -0.033,1.887 0,2.059 0.225,2.084 0.446,2.102 0.663,2.114 0.88,2.126 1.101,2.133 1.327,2.133 1.551,2.133 1.776,2.126 2.002,2.114 2.226,2.102 2.451,2.084 2.677,2.059 2.709,1.887 2.737,1.716 2.761,1.544 2.785,1.373 2.798,1.201 2.798,1.029 2.798,0.858 2.785,0.686 2.761,0.515 2.737,0.343 2.709,0.171 2.677,0 2.451,-0.024 2.231,-0.043 2.014,-0.055 1.797,-0.067 1.575,-0.074 1.351,-0.074 1.125,-0.074 0.9,-0.067 0.675,-0.055 0.45,-0.043 0.225,-0.024 0,0" id="path36"/>
    <path clip-path="url(#clipPath39)" transform="matrix(1.3333333,0,0,-1.3333333,266.67413,288.91107)" style="fill:#00019a;fill-opacity:1;fill-rule:nonzero;stroke:none" d="M 0,0 C 3.502,1.776 7.576,1.368 11.395,1.378 16.796,1.397 22.182,0.95 27.573,0.59 27.44,-1.914 27.159,-4.408 26.975,-6.908 21.094,-6.972 15.213,-6.844 9.332,-6.967 7.801,-6.947 6.07,-7.926 6.08,-9.555 c -0.143,-2.888 -0.01,-5.786 -0.056,-8.674 6.152,-0.084 12.309,0.083 18.455,-0.089 0.005,-2.48 0.005,-4.959 0.005,-7.444 -6.136,-0.138 -12.273,-0.049 -18.404,-0.044 -0.122,-6.46 -0.015,-12.926 -0.056,-19.391 -3.563,-0.019 -7.132,-0.014 -10.695,-0.005 0.005,12.409 -0.021,24.813 0.01,37.222 C -4.702,-4.773 -2.986,-1.53 0,0" id="path38"/>
    <path clip-path="url(#clipPath41)" transform="matrix(1.3333333,0,0,-1.3333333,357.838,287.53347)" style="fill:#00019a;fill-opacity:1;fill-rule:nonzero;stroke:none" d="m 0,0 c 3.579,0.143 7.157,0.034 10.736,0.064 0.026,-9.929 0.026,-19.858 0.005,-29.787 -0.209,-4.329 -0.791,-8.994 -3.681,-12.502 -3.093,-3.7 -8.311,-4.753 -12.992,-4.915 -5.728,-0.143 -12.12,0.049 -16.755,3.734 -4.431,3.754 -4.876,9.855 -5.1,15.164 -0.056,9.427 0.005,18.859 -0.031,28.291 3.533,0.025 7.061,0.035 10.593,0 0.102,-10.258 -0.224,-20.522 0.215,-30.77 0.143,-2.8 0.919,-6.205 3.89,-7.42 2.956,-0.994 6.325,-1.019 9.271,0.034 3.226,1.452 3.732,5.324 3.849,8.37 C 0.036,-19.828 0.031,-9.914 0,0" id="path40"/>
    <path clip-path="url(#clipPath43)" transform="matrix(1.3333333,0,0,-1.3333333,399.95867,287.44813)" style="fill:#00019a;fill-opacity:1;fill-rule:nonzero;stroke:none" d="m 0,0 c 3.487,0.015 6.974,-0.01 10.466,0.015 0.183,-11.73 0.01,-23.469 0.086,-35.199 0.016,-2.888 -0.076,-6.062 -2.062,-8.414 -4.237,-4.949 -12.023,-4.014 -17.638,-2.14 0.536,2.239 0.878,4.512 1.169,6.785 2.69,0.128 7.183,-0.704 7.887,2.78 C 0.097,-24.124 -0.087,-12.059 0,0" id="path42"/>
    <path clip-path="url(#clipPath45)" transform="matrix(1.3333333,0,0,-1.3333333,494.8936,297.74773)" style="fill:#00019a;fill-opacity:1;fill-rule:nonzero;stroke:none" d="M 0,0 C -1.486,-6.194 -3.431,-12.276 -5.064,-18.431 -1.133,-18.47 2.803,-18.46 6.739,-18.436 5.1,-12.31 3.15,-6.263 1.72,-0.089 1.144,-0.059 0.572,-0.03 0,0 m -7.847,5.21 c 0.394,1.427 1.746,2.421 3.278,2.456 3.4,0.142 6.805,0.049 10.21,0.044 1.634,0.069 3.37,-0.773 3.819,-2.381 4.696,-14.623 9.276,-29.28 13.983,-43.903 -3.604,-0.01 -7.209,-0.015 -10.813,0.005 -1.271,3.965 -2.338,7.985 -3.471,11.99 -5.524,0.04 -11.048,0.069 -16.567,-0.015 -1.128,-3.995 -2.317,-7.975 -3.389,-11.985 -3.645,0 -7.29,-0.01 -10.936,0.01 4.59,14.603 9.261,29.186 13.886,43.779" id="path44"/>
    <path clip-path="url(#clipPath47)" transform="matrix(1.3333333,0,0,-1.3333333,541.79947,293.6804)" style="fill:#00019a;fill-opacity:1;fill-rule:nonzero;stroke:none" d="m 0,0 c -0.071,1.776 0.362,4.285 2.629,4.507 2.874,0.305 5.805,0.241 8.689,0.049 1.966,-0.152 2.895,-2.002 3.676,-3.493 4.385,-8.857 9.036,-17.585 13.385,-26.456 0.827,-1.466 1.088,-3.36 2.584,-4.379 -0.848,11.454 -0.276,22.953 -0.424,34.426 3.359,0.035 6.718,0.035 10.077,0 0,-14.347 0.051,-28.699 -0.025,-43.046 0.168,-2.268 -2.114,-3.641 -4.253,-3.252 -3.364,0.423 -8.285,-1.398 -10.052,2.435 C 20.747,-28.325 14.922,-17.521 9.909,-6.431 10.471,-18.151 10.093,-29.9 10.18,-41.634 6.82,-41.63 3.461,-41.63 0.107,-41.639 -0.138,-27.765 0.077,-13.88 0,0" id="path46"/>
    <path clip-path="url(#clipPath49)" transform="matrix(1.3333333,0,0,-1.3333333,439.50733,287.4844)" style="fill:#00019a;fill-opacity:1;fill-rule:nonzero;stroke:none" d="m 0,0 c 0.006,0.003 0.012,0.005 0.018,0.007 0.107,0.041 0.225,0.042 0.34,0.042 1.489,0.004 2.98,-0.018 4.468,0.005 1.238,0.096 0.629,-1.477 0.764,-2.194 -1.96,0.002 -3.923,0 -5.883,0 C -0.21,-1.646 -0.635,-0.272 0,0" id="path48"/>
    <path clip-path="url(#clipPath51)" transform="matrix(1.3333333,0,0,-1.3333333,434.48987,346.2628)" style="fill:#00019a;fill-opacity:1;fill-rule:nonzero;stroke:none" d="m 0,0 h 12.823 c 0.004,0 0.005,-0.979 0.005,-1.068 0,-0.282 0.093,-0.705 -0.106,-0.934 -0.292,-0.335 -0.717,-0.187 -1.12,-0.187 -0.372,0 -0.745,0 -1.118,0 C 9.739,-2.19 8.994,-2.192 8.249,-2.194 6.758,-2.198 5.268,-2.203 3.777,-2.197 c -0.059,0 -0.119,0 -0.179,10e-4 -1.047,0.004 -2.094,0.016 -3.141,0.029 -0.053,0 -0.107,10e-4 -0.157,0.02 C -0.199,-1.958 0.028,0 0,0" id="path50"/>
    <path clip-path="url(#clipPath53)" transform="matrix(1.3333333,0,0,-1.3333333,433.27893,294.38093)" style="fill:#00019a;fill-opacity:1;fill-rule:nonzero;stroke:none" d="m 0,0 c 0.29,1.106 1.332,2.01 2.546,1.98 2.731,0 5.463,0.008 8.195,0.002 C 7.172,1.272 3.588,0.618 0,0" id="path52"/>
    <path clip-path="url(#clipPath55)" transform="matrix(1.3333333,0,0,-1.3333333,433.16547,295.86267)" style="fill:#00019a;fill-opacity:1;fill-rule:nonzero;stroke:none" d="M 0,0 C 4.633,0.833 9.258,1.712 13.896,2.509 14.395,1.992 14.693,1.341 14.792,0.644 9.808,-0.32 4.803,-1.175 -0.186,-2.112 -0.12,-1.408 -0.059,-0.705 0,0" id="path54"/>
    <path clip-path="url(#clipPath57)" transform="matrix(1.3333333,0,0,-1.3333333,432.8112,300.12947)" style="fill:#00019a;fill-opacity:1;fill-rule:nonzero;stroke:none" d="M 0,0 C 5.036,0.902 10.065,1.849 15.103,2.747 15.18,2.065 15.239,1.384 15.28,0.7 10.119,-0.224 4.96,-1.163 -0.195,-2.122 -0.139,-1.414 -0.08,-0.706 0,0" id="path56"/>
    <path clip-path="url(#clipPath59)" transform="matrix(1.3333333,0,0,-1.3333333,432.45453,304.3784)" style="fill:#00019a;fill-opacity:1;fill-rule:nonzero;stroke:none" d="M 0,0 C 5.225,0.905 10.432,1.906 15.654,2.832 15.725,2.147 15.779,1.463 15.8,0.775 10.46,-0.156 5.135,-1.173 -0.2,-2.127 -0.179,-1.416 -0.097,-0.706 0,0" id="path58"/>
    <path clip-path="url(#clipPath61)" transform="matrix(1.3333333,0,0,-1.3333333,432.02387,308.68093)" style="fill:#00019a;fill-opacity:1;fill-rule:nonzero;stroke:none" d="M 0,0 C 5.422,0.941 10.817,2.044 16.249,2.906 16.268,2.254 16.536,1.535 16.326,0.922 10.85,-0.126 5.352,-1.096 -0.135,-2.097 -0.115,-1.398 -0.068,-0.698 0,0" id="path60"/>
    <path clip-path="url(#clipPath63)" transform="matrix(1.3333333,0,0,-1.3333333,433.32747,312.72453)" style="fill:#00019a;fill-opacity:1;fill-rule:nonzero;stroke:none" d="M 0,0 C 5.165,1.063 10.378,1.918 15.563,2.887 15.619,2.204 15.657,1.521 15.68,0.835 12.788,0.328 9.909,-0.234 7.016,-0.736 6.156,-0.867 5.279,-1.188 4.407,-0.944 2.944,-0.603 1.457,-0.367 0,0" id="path62"/>
    <path clip-path="url(#clipPath65)" transform="matrix(1.3333333,0,0,-1.3333333,444.03427,314.9048)" style="fill:#00019a;fill-opacity:1;fill-rule:nonzero;stroke:none" d="M 0,0 C 2.593,0.47 5.18,0.971 7.782,1.399 7.924,0.362 7.974,-0.686 8.075,-1.729 5.389,-1.133 2.662,-0.686 0,0" id="path64"/>
    <path clip-path="url(#clipPath67)" transform="matrix(1.3333333,0,0,-1.3333333,431.54693,313.8536)" style="fill:#00019a;fill-opacity:1;fill-rule:nonzero;stroke:none" d="m 0,0 c 5.854,-1.158 11.68,-2.449 17.533,-3.613 0.076,-0.707 0.14,-1.415 0.199,-2.123 C 11.778,-4.509 5.83,-3.25 -0.129,-2.035 -0.104,-1.356 -0.063,-0.676 0,0" id="path66"/>
    <path clip-path="url(#clipPath69)" transform="matrix(1.3333333,0,0,-1.3333333,431.188,317.97987)" style="fill:#00019a;fill-opacity:1;fill-rule:nonzero;stroke:none" d="m 0,0 c 6.038,-1.218 12.062,-2.499 18.094,-3.754 0.069,-0.695 0.128,-1.389 0.187,-2.085 -6.156,1.243 -12.3,2.54 -18.444,3.829 C -0.106,-1.339 -0.052,-0.669 0,0" id="path68"/>
    <path clip-path="url(#clipPath71)" transform="matrix(1.3333333,0,0,-1.3333333,430.84533,322.106)" style="fill:#00019a;fill-opacity:1;fill-rule:nonzero;stroke:none" d="m 0,0 c 6.174,-1.279 12.354,-2.531 18.516,-3.866 -0.702,-0.415 -1.541,-0.502 -2.307,-0.767 -0.656,-0.159 -1.311,-0.509 -2.007,-0.376 -4.793,0.974 -9.576,2.005 -14.37,2.975 0.05,0.68 0.1,1.358 0.168,2.034" id="path70"/>
    <path clip-path="url(#clipPath73)" transform="matrix(1.3333333,0,0,-1.3333333,430.48187,326.22547)" style="fill:#00019a;fill-opacity:1;fill-rule:nonzero;stroke:none" d="M 0,0 C 4.171,-0.892 8.367,-1.69 12.526,-2.633 11.656,-3.011 10.715,-3.18 9.817,-3.473 9.247,-3.637 8.659,-3.895 8.053,-3.746 5.316,-3.136 2.549,-2.649 -0.179,-2.005 -0.123,-1.336 -0.063,-0.668 0,0" id="path72"/>
    <path clip-path="url(#clipPath75)" transform="matrix(1.3333333,0,0,-1.3333333,429.6088,336.38147)" style="fill:#00019a;fill-opacity:1;fill-rule:nonzero;stroke:none" d="M 0,0 C 6.55,1.905 13.103,3.808 19.66,5.687 19.724,4.999 19.785,4.311 19.839,3.622 13.174,1.677 6.497,-0.236 -0.17,-2.177 -0.193,-1.448 -0.102,-0.721 0,0" id="path74"/>
    <path clip-path="url(#clipPath77)" transform="matrix(1.3333333,0,0,-1.3333333,430.11827,330.35387)" style="fill:#00019a;fill-opacity:1;fill-rule:nonzero;stroke:none" d="M 0,0 C 2.133,-0.439 4.267,-0.865 6.389,-1.349 4.241,-2.199 1.929,-2.673 -0.28,-3.389 -0.214,-2.256 -0.095,-1.13 0,0" id="path76"/>
    <path clip-path="url(#clipPath79)" transform="matrix(1.3333333,0,0,-1.3333333,429.12253,340.8468)" style="fill:#00019a;fill-opacity:1;fill-rule:nonzero;stroke:none" d="M 0,0 C 6.755,1.988 13.528,3.92 20.29,5.886 20.37,5.188 20.44,4.489 20.485,3.788 13.79,1.923 7.144,-0.102 0.448,-1.957 0.108,-1.356 -0.052,-0.685 0,0" id="path78"/>
    <path clip-path="url(#clipPath81)" transform="matrix(1.3333333,0,0,-1.3333333,432.75787,344.0848)" style="fill:#00019a;fill-opacity:1;fill-rule:nonzero;stroke:none" d="M 0,0 C 5.963,1.714 11.915,3.465 17.883,5.16 17.937,4.464 17.979,3.767 18.007,3.07 14.079,1.945 10.154,0.812 6.234,-0.34 5.062,-0.75 3.801,-0.529 2.586,-0.581 1.341,-0.536 0.073,-0.711 -1.151,-0.422 -0.778,-0.256 -0.394,-0.112 0,0" id="path80"/>
    <path clip-path="url(#clipPath83)" transform="matrix(1.3333333,0,0,-1.3333333,445.17573,344.85467)" style="fill:#00019a;fill-opacity:1;fill-rule:nonzero;stroke:none" d="M 0,0 C 2.944,0.914 5.91,1.762 8.883,2.576 8.827,1.307 7.823,0.047 6.438,0.012 4.293,-0.023 2.146,0.008 0,0" id="path82"/>
    <path clip-path="url(#clipPath85)" transform="matrix(1.3333333,0,0,-1.3333333,135.3464,288.5872)" style="fill:#00019a;fill-opacity:1;fill-rule:nonzero;stroke:none" d="m 0,0 c -0.822,-0.734 -1.583,-1.981 -2.847,-1.813 -1.008,0.248 -1.627,1.176 -2.343,1.857 0.831,0.716 1.582,1.928 2.829,1.795 C -1.309,1.689 -0.699,0.699 0,0" id="path84"/>
    <path clip-path="url(#clipPath87)" transform="matrix(1.3333333,0,0,-1.3333333,142.6204,294.38747)" style="fill:#00019a;fill-opacity:1;fill-rule:nonzero;stroke:none" d="M 0,0 C -2.025,-0.416 -3.581,-2.034 -4.023,-4.041 -2.679,-4.094 -1.326,-4.094 0.018,-4.076 0.062,-2.714 0.062,-1.353 0,0 M 1.592,18.444 C 1.521,17.074 1.521,15.712 1.556,14.342 2.9,14.333 4.244,14.315 5.588,14.306 5.279,16.42 3.563,17.896 1.592,18.444 M 6.808,6.021 C 3.28,6.446 0.486,9.346 -0.035,12.821 -1.123,12.83 -2.21,12.838 -3.298,12.847 -3.024,7.56 1.556,2.971 6.853,2.714 6.844,3.82 6.826,4.916 6.808,6.021 M 8.338,1.194 C 7.922,-2.308 5.04,-5.128 1.565,-5.615 c -0.009,-1.078 -0.009,-2.166 0,-3.253 5.279,0.203 9.744,4.81 10.124,10.017 -1.114,0.062 -2.237,0.08 -3.351,0.045 m 3.325,4.792 c -1.114,0.071 -2.237,0.071 -3.351,0.027 0,-1.106 0,-2.202 0.008,-3.307 1.123,-0.018 2.237,-0.018 3.36,0 -0.008,1.096 -0.017,2.192 -0.017,3.28 m -3.378,1.6 c 1.123,-0.035 2.246,-0.035 3.378,-0.026 0.398,3.51 3.289,6.322 6.746,6.817 0.035,1.114 0.044,2.228 0.027,3.342 C 13.157,17.348 8.701,12.847 8.285,7.586 M 18.462,-5.535 c -1.353,0 -2.697,-0.018 -4.05,-0.053 0.301,-2.069 2.008,-3.652 4.024,-4.032 0.053,1.362 0.053,2.723 0.026,4.085 M 13.148,5.977 c 0,-1.096 0.009,-2.193 0.044,-3.289 3.466,-0.389 6.367,-3.236 6.738,-6.72 1.114,-0.062 2.237,-0.062 3.36,-0.018 -0.336,5.217 -4.846,9.886 -10.142,10.027 m 6.773,6.861 c 0.018,-1.352 0.009,-2.696 0,-4.049 2.069,0.336 3.687,1.989 4.067,4.041 -1.353,0.017 -2.705,0.008 -4.067,0.008 m 0,0 c 0.018,-1.352 0.009,-2.696 0,-4.049 2.069,0.336 3.687,1.989 4.067,4.041 -1.353,0.017 -2.705,0.008 -4.067,0.008 M 13.148,5.977 c 0,-1.096 0.009,-2.193 0.044,-3.289 3.466,-0.389 6.367,-3.236 6.738,-6.72 1.114,-0.062 2.237,-0.062 3.36,-0.018 -0.336,5.217 -4.846,9.886 -10.142,10.027 m 5.314,-11.512 c -1.353,0 -2.697,-0.018 -4.05,-0.053 0.301,-2.069 2.008,-3.652 4.024,-4.032 0.053,1.362 0.053,2.723 0.026,4.085 M 8.285,7.586 c 1.123,-0.035 2.246,-0.035 3.378,-0.026 0.398,3.51 3.289,6.322 6.746,6.817 0.035,1.114 0.044,2.228 0.027,3.342 C 13.157,17.348 8.701,12.847 8.285,7.586 m 3.378,-1.6 c -1.114,0.071 -2.237,0.071 -3.351,0.027 0,-1.106 0,-2.202 0.008,-3.307 1.123,-0.018 2.237,-0.018 3.36,0 -0.008,1.096 -0.017,2.192 -0.017,3.28 M 8.338,1.194 C 7.922,-2.308 5.04,-5.128 1.565,-5.615 c -0.009,-1.078 -0.009,-2.166 0,-3.253 5.279,0.203 9.744,4.81 10.124,10.017 -1.114,0.062 -2.237,0.08 -3.351,0.045 M 6.808,6.021 C 3.28,6.446 0.486,9.346 -0.035,12.821 -1.123,12.83 -2.21,12.838 -3.298,12.847 -3.024,7.56 1.556,2.971 6.853,2.714 6.844,3.82 6.826,4.916 6.808,6.021 M 1.592,18.444 C 1.521,17.074 1.521,15.712 1.556,14.342 2.9,14.333 4.244,14.315 5.588,14.306 5.279,16.42 3.563,17.896 1.592,18.444 M 0,0 C -2.025,-0.416 -3.581,-2.034 -4.023,-4.041 -2.679,-4.094 -1.326,-4.094 0.018,-4.076 0.062,-2.714 0.062,-1.353 0,0 M 0,0 C -2.025,-0.416 -3.581,-2.034 -4.023,-4.041 -2.679,-4.094 -1.326,-4.094 0.018,-4.076 0.062,-2.714 0.062,-1.353 0,0 M 1.592,18.444 C 1.521,17.074 1.521,15.712 1.556,14.342 2.9,14.333 4.244,14.315 5.588,14.306 5.279,16.42 3.563,17.896 1.592,18.444 M 6.808,6.021 C 3.28,6.446 0.486,9.346 -0.035,12.821 -1.123,12.83 -2.21,12.838 -3.298,12.847 -3.024,7.56 1.556,2.971 6.853,2.714 6.844,3.82 6.826,4.916 6.808,6.021 M 8.338,1.194 C 7.922,-2.308 5.04,-5.128 1.565,-5.615 c -0.009,-1.078 -0.009,-2.166 0,-3.253 5.279,0.203 9.744,4.81 10.124,10.017 -1.114,0.062 -2.237,0.08 -3.351,0.045 m 3.325,4.792 c -1.114,0.071 -2.237,0.071 -3.351,0.027 0,-1.106 0,-2.202 0.008,-3.307 1.123,-0.018 2.237,-0.018 3.36,0 -0.008,1.096 -0.017,2.192 -0.017,3.28 M 10.107,24.793 C 9.231,24.589 8.621,23.661 8.205,22.892 7.896,21.53 9.187,20.611 10.071,19.824 c 0.699,0.822 1.804,1.565 1.768,2.758 -0.203,0.955 -0.972,1.68 -1.732,2.211 M 8.285,7.586 c 1.123,-0.035 2.246,-0.035 3.378,-0.026 0.398,3.51 3.289,6.322 6.746,6.817 0.035,1.114 0.044,2.228 0.027,3.342 C 13.157,17.348 8.701,12.847 8.285,7.586 M 18.462,-5.535 c -1.353,0 -2.697,-0.018 -4.05,-0.053 0.301,-2.069 2.008,-3.652 4.024,-4.032 0.053,1.362 0.053,2.723 0.026,4.085 M 13.148,5.977 c 0,-1.096 0.009,-2.193 0.044,-3.289 3.466,-0.389 6.367,-3.236 6.738,-6.72 1.114,-0.062 2.237,-0.062 3.36,-0.018 -0.336,5.217 -4.846,9.886 -10.142,10.027 m 6.773,6.861 c 0.018,-1.352 0.009,-2.696 0,-4.049 2.069,0.336 3.687,1.989 4.067,4.041 -1.353,0.017 -2.705,0.008 -4.067,0.008 M 27.808,6.189 C 26.756,6.057 26.146,5.04 25.43,4.368 26.163,3.696 26.8,2.759 27.817,2.52 c 1.229,-0.062 1.989,1.105 2.794,1.848 -0.805,0.751 -1.539,1.981 -2.803,1.821 m 0,0 C 26.756,6.057 26.146,5.04 25.43,4.368 26.163,3.696 26.8,2.759 27.817,2.52 c 1.229,-0.062 1.989,1.105 2.794,1.848 -0.805,0.751 -1.539,1.981 -2.803,1.821 m -7.887,6.649 c 0.018,-1.352 0.009,-2.696 0,-4.049 2.069,0.336 3.687,1.989 4.067,4.041 -1.353,0.017 -2.705,0.008 -4.067,0.008 M 13.148,5.977 c 0,-1.096 0.009,-2.193 0.044,-3.289 3.466,-0.389 6.367,-3.236 6.738,-6.72 1.114,-0.062 2.237,-0.062 3.36,-0.018 -0.336,5.217 -4.846,9.886 -10.142,10.027 m 5.314,-11.512 c -1.353,0 -2.697,-0.018 -4.05,-0.053 0.301,-2.069 2.008,-3.652 4.024,-4.032 0.053,1.362 0.053,2.723 0.026,4.085 M 8.285,7.586 c 1.123,-0.035 2.246,-0.035 3.378,-0.026 0.398,3.51 3.289,6.322 6.746,6.817 0.035,1.114 0.044,2.228 0.027,3.342 C 13.157,17.348 8.701,12.847 8.285,7.586 m 3.378,-1.6 c -1.114,0.071 -2.237,0.071 -3.351,0.027 0,-1.106 0,-2.202 0.008,-3.307 1.123,-0.018 2.237,-0.018 3.36,0 -0.008,1.096 -0.017,2.192 -0.017,3.28 M 8.338,1.194 C 7.922,-2.308 5.04,-5.128 1.565,-5.615 c -0.009,-1.078 -0.009,-2.166 0,-3.253 5.279,0.203 9.744,4.81 10.124,10.017 -1.114,0.062 -2.237,0.08 -3.351,0.045 M 6.808,6.021 C 3.28,6.446 0.486,9.346 -0.035,12.821 -1.123,12.83 -2.21,12.838 -3.298,12.847 -3.024,7.56 1.556,2.971 6.853,2.714 6.844,3.82 6.826,4.916 6.808,6.021 M 1.592,18.444 C 1.521,17.074 1.521,15.712 1.556,14.342 2.9,14.333 4.244,14.315 5.588,14.306 5.279,16.42 3.563,17.896 1.592,18.444 M 0,0 C -2.025,-0.416 -3.581,-2.034 -4.023,-4.041 -2.679,-4.094 -1.326,-4.094 0.018,-4.076 0.062,-2.714 0.062,-1.353 0,0 M 10.107,24.793 C 9.231,24.589 8.621,23.661 8.205,22.892 7.896,21.53 9.187,20.611 10.071,19.824 c 0.699,0.822 1.804,1.565 1.768,2.758 -0.203,0.955 -0.972,1.68 -1.732,2.211 M -4.023,-4.041 C -2.679,-4.094 -1.326,-4.094 0.018,-4.076 0.062,-2.714 0.062,-1.353 0,0 -2.025,-0.416 -3.581,-2.034 -4.023,-4.041 M 5.588,14.306 C 5.279,16.42 3.563,17.896 1.592,18.444 1.521,17.074 1.521,15.712 1.556,14.342 2.9,14.333 4.244,14.315 5.588,14.306 M -0.035,12.821 C -1.123,12.83 -2.21,12.838 -3.298,12.847 -3.024,7.56 1.556,2.971 6.853,2.714 6.844,3.82 6.826,4.916 6.808,6.021 3.28,6.446 0.486,9.346 -0.035,12.821 M 8.338,1.194 C 7.922,-2.308 5.04,-5.128 1.565,-5.615 c -0.009,-1.078 -0.009,-2.166 0,-3.253 5.279,0.203 9.744,4.81 10.124,10.017 -1.114,0.062 -2.237,0.08 -3.351,0.045 M 8.312,6.013 c 0,-1.106 0,-2.202 0.008,-3.307 1.123,-0.018 2.237,-0.018 3.36,0 -0.008,1.096 -0.017,2.192 -0.017,3.28 -1.114,0.071 -2.237,0.071 -3.351,0.027 m 1.609,-17.065 c -0.769,-0.814 -1.919,-1.61 -1.778,-2.883 0.319,-0.893 1.044,-1.839 1.946,-2.14 0.893,0.628 1.865,1.601 1.724,2.794 -0.283,0.973 -1.203,1.557 -1.892,2.229 m 0.15,30.876 c 0.699,0.822 1.804,1.565 1.768,2.758 -0.203,0.955 -0.972,1.68 -1.732,2.211 C 9.231,24.589 8.621,23.661 8.205,22.892 7.896,21.53 9.187,20.611 10.071,19.824 M 11.663,7.56 c 0.398,3.51 3.289,6.322 6.746,6.817 0.035,1.114 0.044,2.228 0.027,3.342 C 13.157,17.348 8.701,12.847 8.285,7.586 9.408,7.551 10.531,7.551 11.663,7.56 m 2.749,-13.148 c 0.301,-2.069 2.008,-3.652 4.024,-4.032 0.053,1.362 0.053,2.723 0.026,4.085 -1.353,0 -2.697,-0.018 -4.05,-0.053 M 13.148,5.977 c 0,-1.096 0.009,-2.193 0.044,-3.289 3.466,-0.389 6.367,-3.236 6.738,-6.72 1.114,-0.062 2.237,-0.062 3.36,-0.018 -0.336,5.217 -4.846,9.886 -10.142,10.027 m 10.84,6.853 c -1.353,0.017 -2.705,0.008 -4.067,0.008 0.018,-1.352 0.009,-2.696 0,-4.049 2.069,0.336 3.687,1.989 4.067,4.041 m 3.82,-6.641 C 26.756,6.057 26.146,5.04 25.43,4.368 26.163,3.696 26.8,2.759 27.817,2.52 29.046,2.458 29.806,3.625 30.611,4.368 29.806,5.119 29.072,6.349 27.808,6.189 M 28.1,1.034 c -2.158,-0.017 -3.378,2.025 -4.784,3.334 1.415,1.3 2.609,3.378 4.784,3.324 2.069,-0.07 3.245,-2.033 4.598,-3.333 C 31.283,3.13 30.178,1.088 28.1,1.034 m -8.161,-8.223 c 0.017,-1.344 -0.009,-2.687 -0.071,-4.023 -1.848,0.062 -3.802,0.478 -5.119,1.884 -1.451,1.335 -1.875,3.324 -1.972,5.208 1.91,0.017 3.828,0.026 5.738,0.106 -0.583,2.626 -2.599,4.792 -5.305,5.234 -0.398,-6.649 -6.631,-12.325 -13.343,-11.574 0.23,1.583 0.204,3.192 0.151,4.784 -1.866,0 -3.732,0.008 -5.597,0.035 -0.389,3.97 3.147,7.436 7.091,7.127 0.018,-1.893 0.018,-3.785 0.062,-5.686 2.67,0.46 4.73,2.591 5.296,5.208 -2.219,0.371 -4.474,0.928 -6.322,2.264 -3.554,2.369 -5.535,6.658 -5.393,10.893 1.609,0.053 3.227,0.079 4.836,0.071 0.062,1.883 0.071,3.757 0.044,5.641 2.123,-0.018 4.377,-0.69 5.704,-2.458 1.105,-1.3 1.352,-3.033 1.432,-4.678 -1.901,-0.009 -3.802,0 -5.703,-0.088 0.583,-2.644 2.617,-4.748 5.296,-5.261 0.363,6.631 6.464,12.131 13.113,11.716 0.062,-1.627 0.079,-3.254 0.097,-4.89 1.866,0.009 3.722,0 5.588,0 0.389,-3.952 -3.094,-7.489 -7.047,-7.127 -0.079,1.884 -0.071,3.767 -0.088,5.65 -2.653,-0.451 -4.793,-2.564 -5.252,-5.234 2.298,-0.354 4.624,-0.964 6.498,-2.405 3.458,-2.396 5.279,-6.614 5.182,-10.761 -1.645,0 -3.298,-0.009 -4.943,-0.053 0.009,-0.521 0.027,-1.052 0.027,-1.583 m -6.685,-7.029 c -0.433,-1.715 -1.945,-3.015 -3.36,-3.97 -1.353,1.353 -3.448,2.697 -3.201,4.872 0.239,1.945 2.043,3.095 3.369,4.315 1.353,-1.494 3.67,-2.865 3.192,-5.217 M -12.688,4.359 C -11.309,5.738 -10,7.843 -7.781,7.684 -5.774,7.533 -4.677,5.588 -3.316,4.35 -4.757,3.077 -5.959,1.017 -8.108,1.034 -10.177,1.105 -11.3,3.121 -12.688,4.359 M 6.808,23.36 c 0.619,1.539 2.043,2.538 3.131,3.723 1.299,-1.203 2.961,-2.352 3.35,-4.191 0.337,-2.228 -1.741,-3.714 -3.2,-5.031 -1.733,1.096 -3.988,3.121 -3.281,5.499 M 9.824,34.316 -19.859,4.279 10.168,-25.412 39.868,4.624 Z m 0.283,-9.523 C 9.231,24.589 8.621,23.661 8.205,22.892 7.896,21.53 9.187,20.611 10.071,19.824 c 0.699,0.822 1.804,1.565 1.768,2.758 -0.203,0.955 -0.972,1.68 -1.732,2.211 M -4.023,-4.041 C -2.679,-4.094 -1.326,-4.094 0.018,-4.076 0.062,-2.714 0.062,-1.353 0,0 -2.025,-0.416 -3.581,-2.034 -4.023,-4.041 M 5.588,14.306 C 5.279,16.42 3.563,17.896 1.592,18.444 1.521,17.074 1.521,15.712 1.556,14.342 2.9,14.333 4.244,14.315 5.588,14.306 M 6.853,2.714 C 6.844,3.82 6.826,4.916 6.808,6.021 3.28,6.446 0.486,9.346 -0.035,12.821 -1.123,12.83 -2.21,12.838 -3.298,12.847 -3.024,7.56 1.556,2.971 6.853,2.714 M 8.338,1.194 C 7.922,-2.308 5.04,-5.128 1.565,-5.615 c -0.009,-1.078 -0.009,-2.166 0,-3.253 5.279,0.203 9.744,4.81 10.124,10.017 -1.114,0.062 -2.237,0.08 -3.351,0.045 M 8.312,6.013 c 0,-1.106 0,-2.202 0.008,-3.307 1.123,-0.018 2.237,-0.018 3.36,0 -0.008,1.096 -0.017,2.192 -0.017,3.28 -1.114,0.071 -2.237,0.071 -3.351,0.027 m 3.351,1.547 c 0.398,3.51 3.289,6.322 6.746,6.817 0.035,1.114 0.044,2.228 0.027,3.342 C 13.157,17.348 8.701,12.847 8.285,7.586 9.408,7.551 10.531,7.551 11.663,7.56 m 2.749,-13.148 c 0.301,-2.069 2.008,-3.652 4.024,-4.032 0.053,1.362 0.053,2.723 0.026,4.085 -1.353,0 -2.697,-0.018 -4.05,-0.053 M 13.148,5.977 c 0,-1.096 0.009,-2.193 0.044,-3.289 3.466,-0.389 6.367,-3.236 6.738,-6.72 1.114,-0.062 2.237,-0.062 3.36,-0.018 -0.336,5.217 -4.846,9.886 -10.142,10.027 m 10.84,6.853 c -1.353,0.017 -2.705,0.008 -4.067,0.008 0.018,-1.352 0.009,-2.696 0,-4.049 2.069,0.336 3.687,1.989 4.067,4.041 m 3.82,-6.641 C 26.756,6.057 26.146,5.04 25.43,4.368 26.163,3.696 26.8,2.759 27.817,2.52 c 1.229,-0.062 1.989,1.105 2.794,1.848 -0.805,0.751 -1.539,1.981 -2.803,1.821 m 0,0 C 26.756,6.057 26.146,5.04 25.43,4.368 26.163,3.696 26.8,2.759 27.817,2.52 c 1.229,-0.062 1.989,1.105 2.794,1.848 -0.805,0.751 -1.539,1.981 -2.803,1.821 m -7.887,6.649 c 0.018,-1.352 0.009,-2.696 0,-4.049 2.069,0.336 3.687,1.989 4.067,4.041 -1.353,0.017 -2.705,0.008 -4.067,0.008 M 13.148,5.977 c 0,-1.096 0.009,-2.193 0.044,-3.289 3.466,-0.389 6.367,-3.236 6.738,-6.72 1.114,-0.062 2.237,-0.062 3.36,-0.018 -0.336,5.217 -4.846,9.886 -10.142,10.027 m 5.314,-11.512 c -1.353,0 -2.697,-0.018 -4.05,-0.053 0.301,-2.069 2.008,-3.652 4.024,-4.032 0.053,1.362 0.053,2.723 0.026,4.085 M 8.285,7.586 c 1.123,-0.035 2.246,-0.035 3.378,-0.026 0.398,3.51 3.289,6.322 6.746,6.817 0.035,1.114 0.044,2.228 0.027,3.342 C 13.157,17.348 8.701,12.847 8.285,7.586 m 1.822,17.207 C 9.231,24.589 8.621,23.661 8.205,22.892 7.896,21.53 9.187,20.611 10.071,19.824 c 0.699,0.822 1.804,1.565 1.768,2.758 -0.203,0.955 -0.972,1.68 -1.732,2.211 M 11.663,5.986 c -1.114,0.071 -2.237,0.071 -3.351,0.027 0,-1.106 0,-2.202 0.008,-3.307 1.123,-0.018 2.237,-0.018 3.36,0 -0.008,1.096 -0.017,2.192 -0.017,3.28 M 8.338,1.194 C 7.922,-2.308 5.04,-5.128 1.565,-5.615 c -0.009,-1.078 -0.009,-2.166 0,-3.253 5.279,0.203 9.744,4.81 10.124,10.017 -1.114,0.062 -2.237,0.08 -3.351,0.045 M 6.808,6.021 C 3.28,6.446 0.486,9.346 -0.035,12.821 -1.123,12.83 -2.21,12.838 -3.298,12.847 -3.024,7.56 1.556,2.971 6.853,2.714 6.844,3.82 6.826,4.916 6.808,6.021 M 1.592,18.444 C 1.521,17.074 1.521,15.712 1.556,14.342 2.9,14.333 4.244,14.315 5.588,14.306 5.279,16.42 3.563,17.896 1.592,18.444 M 0,0 C -2.025,-0.416 -3.581,-2.034 -4.023,-4.041 -2.679,-4.094 -1.326,-4.094 0.018,-4.076 0.062,-2.714 0.062,-1.353 0,0 M 10.107,24.793 C 9.231,24.589 8.621,23.661 8.205,22.892 7.896,21.53 9.187,20.611 10.071,19.824 c 0.699,0.822 1.804,1.565 1.768,2.758 -0.203,0.955 -0.972,1.68 -1.732,2.211 M 0,0 C -2.025,-0.416 -3.581,-2.034 -4.023,-4.041 -2.679,-4.094 -1.326,-4.094 0.018,-4.076 0.062,-2.714 0.062,-1.353 0,0 M 1.592,18.444 C 1.521,17.074 1.521,15.712 1.556,14.342 2.9,14.333 4.244,14.315 5.588,14.306 5.279,16.42 3.563,17.896 1.592,18.444 M 6.808,6.021 C 3.28,6.446 0.486,9.346 -0.035,12.821 -1.123,12.83 -2.21,12.838 -3.298,12.847 -3.024,7.56 1.556,2.971 6.853,2.714 6.844,3.82 6.826,4.916 6.808,6.021 M 8.338,1.194 C 7.922,-2.308 5.04,-5.128 1.565,-5.615 c -0.009,-1.078 -0.009,-2.166 0,-3.253 5.279,0.203 9.744,4.81 10.124,10.017 -1.114,0.062 -2.237,0.08 -3.351,0.045 m 3.325,4.792 c -1.114,0.071 -2.237,0.071 -3.351,0.027 0,-1.106 0,-2.202 0.008,-3.307 1.123,-0.018 2.237,-0.018 3.36,0 -0.008,1.096 -0.017,2.192 -0.017,3.28 m -3.378,1.6 c 1.123,-0.035 2.246,-0.035 3.378,-0.026 0.398,3.51 3.289,6.322 6.746,6.817 0.035,1.114 0.044,2.228 0.027,3.342 C 13.157,17.348 8.701,12.847 8.285,7.586 M 18.462,-5.535 c -1.353,0 -2.697,-0.018 -4.05,-0.053 0.301,-2.069 2.008,-3.652 4.024,-4.032 0.053,1.362 0.053,2.723 0.026,4.085 M 13.148,5.977 c 0,-1.096 0.009,-2.193 0.044,-3.289 3.466,-0.389 6.367,-3.236 6.738,-6.72 1.114,-0.062 2.237,-0.062 3.36,-0.018 -0.336,5.217 -4.846,9.886 -10.142,10.027 m 6.773,6.861 c 0.018,-1.352 0.009,-2.696 0,-4.049 2.069,0.336 3.687,1.989 4.067,4.041 -1.353,0.017 -2.705,0.008 -4.067,0.008 m 0,0 c 0.018,-1.352 0.009,-2.696 0,-4.049 2.069,0.336 3.687,1.989 4.067,4.041 -1.353,0.017 -2.705,0.008 -4.067,0.008 M 13.148,5.977 c 0,-1.096 0.009,-2.193 0.044,-3.289 3.466,-0.389 6.367,-3.236 6.738,-6.72 1.114,-0.062 2.237,-0.062 3.36,-0.018 -0.336,5.217 -4.846,9.886 -10.142,10.027 m 5.314,-11.512 c -1.353,0 -2.697,-0.018 -4.05,-0.053 0.301,-2.069 2.008,-3.652 4.024,-4.032 0.053,1.362 0.053,2.723 0.026,4.085 M 8.285,7.586 c 1.123,-0.035 2.246,-0.035 3.378,-0.026 0.398,3.51 3.289,6.322 6.746,6.817 0.035,1.114 0.044,2.228 0.027,3.342 C 13.157,17.348 8.701,12.847 8.285,7.586 m 1.822,17.207 C 9.231,24.589 8.621,23.661 8.205,22.892 7.896,21.53 9.187,20.611 10.071,19.824 c 0.699,0.822 1.804,1.565 1.768,2.758 -0.203,0.955 -0.972,1.68 -1.732,2.211 M 11.663,5.986 c -1.114,0.071 -2.237,0.071 -3.351,0.027 0,-1.106 0,-2.202 0.008,-3.307 1.123,-0.018 2.237,-0.018 3.36,0 -0.008,1.096 -0.017,2.192 -0.017,3.28 M 8.338,1.194 C 7.922,-2.308 5.04,-5.128 1.565,-5.615 c -0.009,-1.078 -0.009,-2.166 0,-3.253 5.279,0.203 9.744,4.81 10.124,10.017 -1.114,0.062 -2.237,0.08 -3.351,0.045 M 6.808,6.021 C 3.28,6.446 0.486,9.346 -0.035,12.821 -1.123,12.83 -2.21,12.838 -3.298,12.847 -3.024,7.56 1.556,2.971 6.853,2.714 6.844,3.82 6.826,4.916 6.808,6.021 M 1.592,18.444 C 1.521,17.074 1.521,15.712 1.556,14.342 2.9,14.333 4.244,14.315 5.588,14.306 5.279,16.42 3.563,17.896 1.592,18.444 M 0,0 C -2.025,-0.416 -3.581,-2.034 -4.023,-4.041 -2.679,-4.094 -1.326,-4.094 0.018,-4.076 0.062,-2.714 0.062,-1.353 0,0" id="path86"/>
    <path clip-path="url(#clipPath89)" transform="matrix(1.3333333,0,0,-1.3333333,163.80587,379.43533)" style="fill:#00019a;fill-opacity:1;fill-rule:nonzero;stroke:none" d="M 0,0 C 0.097,0.433 0.203,0.867 0.318,1.291 4.12,0.61 7.975,0.283 11.839,0.195 c 0,-0.398 0,-0.805 0.009,-1.203 C 7.878,-1.017 3.926,-0.584 0,0 m 0.354,-2.962 c -0.319,0.477 -0.637,0.946 -0.955,1.424 4.111,-0.646 8.249,-1.15 12.423,-1.168 0,-0.406 0.008,-0.822 0.017,-1.229 -3.846,0.009 -7.692,0.372 -11.485,0.973 m 11.485,-3.891 c -2.918,0 -5.835,0.204 -8.727,0.566 -0.804,0.036 -1.079,0.929 -1.494,1.477 3.386,-0.469 6.8,-0.787 10.221,-0.822 z m -6.118,-6.675 c -2.511,2.52 -4.731,5.314 -6.862,8.152 -0.557,0.584 0.009,1.335 0.151,1.972 0.477,-0.584 0.963,-1.158 1.388,-1.777 1.733,-2.768 4.191,-4.97 6.207,-7.516 -0.292,-0.274 -0.584,-0.557 -0.884,-0.831 m -2.414,-1.724 c -2.122,2.166 -4.121,4.456 -5.977,6.852 0.168,0.513 0.336,1.017 0.512,1.53 1.972,-2.617 4.024,-5.182 6.367,-7.472 -0.292,-0.309 -0.593,-0.619 -0.902,-0.91 m -2.432,-1.716 c -1.697,1.742 -3.262,3.608 -4.836,5.465 0.203,0.459 0.407,0.91 0.61,1.37 1.565,-2.104 3.342,-4.041 5.119,-5.959 -0.291,-0.301 -0.592,-0.593 -0.893,-0.876 m -8.479,-0.3 c -0.478,0.097 -0.955,0.194 -1.433,0.291 5.712,10.956 9.09,23.202 9.267,35.589 0.407,0 0.804,0.009 1.22,0.009 C 1.423,6.145 -1.963,-6.189 -7.604,-17.268 m -4.342,0.3 c 5.695,10.964 9.143,23.193 9.24,35.589 h 1.238 C -1.486,6.145 -4.881,-6.198 -10.54,-17.268 c -0.468,0.097 -0.937,0.203 -1.406,0.3 m -2.935,0 c 5.738,10.938 9.134,23.193 9.257,35.58 0.407,0.009 0.814,0.009 1.229,0.009 0,-12.476 -3.413,-24.81 -9.063,-35.898 -0.477,0.106 -0.954,0.203 -1.423,0.309 m -5.438,5.827 c 2.679,2.644 5.597,5.031 8.656,7.224 0.354,-0.15 0.717,-0.292 1.07,-0.442 -0.353,-0.513 -0.76,-0.99 -1.273,-1.335 -2.697,-1.901 -5.19,-4.059 -7.586,-6.313 -0.292,0.291 -0.575,0.583 -0.867,0.866 m -1.733,2.458 c 2.202,2.078 4.448,4.121 6.853,5.969 0.504,-0.186 1.016,-0.372 1.529,-0.558 -2.635,-1.927 -5.163,-4.023 -7.489,-6.33 -0.3,0.309 -0.592,0.61 -0.893,0.919 m -1.706,2.388 c 1.591,1.6 3.324,3.05 5.075,4.482 0.513,0.575 1.185,-0.035 1.768,-0.176 -2.087,-1.627 -4.094,-3.343 -5.968,-5.208 -0.292,0.3 -0.584,0.601 -0.875,0.902 m -0.036,9.938 c 3.705,-1.883 7.489,-3.625 11.442,-4.899 0.822,-0.265 0.955,-1.273 1.335,-1.936 -4.474,1.459 -8.842,3.254 -13.033,5.411 0.088,0.478 0.177,0.946 0.256,1.424 m 0.009,2.9 c 3.28,-1.636 6.596,-3.21 10.053,-4.43 0.292,-0.583 0.584,-1.158 0.876,-1.742 -3.838,1.335 -7.587,2.918 -11.203,4.775 0.088,0.469 0.186,0.928 0.274,1.397 m 0.027,2.936 c 2.458,-1.3 4.987,-2.467 7.577,-3.493 0.92,-0.256 1.079,-1.3 1.441,-2.042 -3.192,1.167 -6.295,2.59 -9.328,4.129 0.106,0.468 0.203,0.937 0.31,1.406 m 6.914,6.154 c 1.768,-5.712 4.209,-11.221 7.188,-16.411 -0.176,-0.619 -0.344,-1.238 -0.521,-1.857 -3.307,5.491 -5.907,11.389 -7.878,17.481 0.397,0.265 0.804,0.53 1.211,0.787 m 2.396,1.768 c 1.432,-4.545 3.236,-8.983 5.526,-13.166 0.531,-0.84 0.062,-1.821 -0.115,-2.688 -2.723,4.748 -4.871,9.797 -6.622,14.979 0.415,0.283 0.813,0.574 1.211,0.875 m 2.405,1.706 c 1.088,-3.474 2.449,-6.852 3.988,-10.141 0.53,-0.937 0.133,-2.016 -0.027,-2.989 -2.042,3.953 -3.757,8.064 -5.155,12.282 0.398,0.283 0.796,0.565 1.194,0.848 M 9.797,10.23 C 10.062,9.832 10.318,9.443 10.584,9.045 7.401,8.037 4.262,6.87 1.211,5.509 1.3,6.021 1.388,6.543 1.477,7.065 c 2.732,1.167 5.49,2.272 8.32,3.165 m -7.825,0.089 c 2.007,0.822 4.014,1.644 6.074,2.334 C 8.329,12.246 8.594,11.839 8.868,11.441 6.428,10.708 4.076,9.726 1.724,8.762 1.804,9.284 1.883,9.797 1.972,10.319 M 12.299,6.623 C 8.205,5.367 4.262,3.678 0.424,1.777 0.663,2.423 0.486,3.44 1.264,3.74 4.589,5.314 8.011,6.702 11.521,7.807 11.786,7.418 12.043,7.021 12.299,6.623 M -6.066,30.779 -35.748,0.743 -5.721,-28.949 23.979,1.088 Z" id="path88"/>
    <path clip-path="url(#clipPath91)" transform="matrix(1.3333333,0,0,-1.3333333,93.202667,338.31427)" style="fill:#00019a;fill-opacity:1;fill-rule:nonzero;stroke:none" d="m 0,0 c 0.961,0.996 1.957,1.964 2.932,2.946 0.05,0 0.146,-0.003 0.196,-0.003 3.007,-3.072 6.118,-6.082 9.139,-9.16 0.01,-0.054 0.032,-0.154 0.043,-0.207 C 11.335,-7.414 10.356,-8.406 9.356,-9.371 6.232,-6.253 3.1,-3.143 0,0 m -4.621,-3.778 c -1.053,0.96 -2.025,2.003 -3.039,3.003 3.457,3.5 6.931,6.996 10.449,10.435 1,-1.007 2.018,-1.996 3.003,-3.018 C 2.339,3.153 -1.136,-0.314 -4.621,-3.778 m 14.213,1.05 c -0.982,0.989 -1.989,1.953 -2.95,2.964 3.018,3.103 6.107,6.135 9.167,9.195 0.05,0 0.15,-0.007 0.197,-0.01 0.942,-0.958 1.907,-1.9 2.846,-2.861 C 18.727,6.364 18.562,6.192 18.391,6.028 15.449,3.121 12.567,0.146 9.592,-2.728 m 3.8,15.741 c -0.186,0.129 -0.093,0.35 0.057,0.457 0.932,0.896 1.807,1.864 2.771,2.728 3.121,-3.099 6.224,-6.224 9.335,-9.327 C 25.101,6.096 24.326,5.571 23.737,4.896 23.348,4.55 23.041,4.085 22.548,3.871 19.487,6.91 16.448,9.97 13.392,13.013 m -3.821,-2.45 c -0.975,0.982 -1.965,1.957 -2.936,2.943 0.114,0.15 0.239,0.289 0.379,0.421 2.942,2.921 5.849,5.885 8.813,8.785 0.396,0.425 0.782,0.882 1.253,1.225 0.99,-0.961 1.954,-1.946 2.936,-2.921 -0.054,-0.161 -0.114,-0.322 -0.254,-0.432 -3.253,-3.254 -6.51,-6.503 -9.759,-9.76 C 9.892,10.685 9.735,10.613 9.571,10.563 M 9.353,17.18 c -1.25,1.243 -2.5,2.479 -3.729,3.736 0.929,0.993 1.907,1.942 2.875,2.896 l 3.746,-3.746 C 11.292,19.091 10.335,18.127 9.353,17.18 M 30.472,10.567 C 31.436,9.596 32.415,8.638 33.368,7.649 30.008,4.232 26.583,0.864 23.205,-2.536 c -0.1,-0.078 -0.232,-0.31 -0.368,-0.153 -0.911,0.868 -1.778,1.778 -2.675,2.653 -0.135,0.093 -0.31,0.347 -0.093,0.457 3.368,3.375 6.736,6.743 10.107,10.107 0.092,0.142 0.189,0.153 0.296,0.039 M 28.29,1.75 c 0.407,0.35 0.707,0.843 1.207,1.057 1.218,-1.218 2.439,-2.432 3.657,-3.65 -0.439,-0.753 -1.196,-1.26 -1.771,-1.907 -0.379,-0.321 -0.643,-0.807 -1.125,-0.982 -1.222,1.214 -2.429,2.436 -3.65,3.65 0.418,0.725 1.132,1.21 1.682,1.832 m -9.295,-8.482 c -3.357,-3.363 -6.718,-6.724 -10.078,-10.084 -0.107,-0.079 -0.254,-0.332 -0.389,-0.147 -0.968,0.975 -1.972,1.922 -2.9,2.936 3.443,3.457 6.899,6.906 10.353,10.359 1.017,-1.003 2.089,-1.981 3.014,-3.064 m -2.689,-3.531 c 1.274,-1.239 2.531,-2.504 3.774,-3.775 -1.01,-1.039 -2.028,-2.078 -3.082,-3.082 -1.253,1.218 -2.474,2.468 -3.71,3.703 0.064,0.15 0.125,0.304 0.25,0.408 0.928,0.914 1.825,1.853 2.768,2.746 M -3.814,4.014 c -0.05,0 -0.15,-0.007 -0.2,-0.007 -1.193,1.164 -2.368,2.353 -3.539,3.546 0.004,0.046 0.014,0.15 0.014,0.2 0.897,0.939 1.815,1.857 2.747,2.76 0.05,0.007 0.15,0.015 0.203,0.018 1.214,-1.214 2.446,-2.41 3.636,-3.657 -0.94,-0.967 -1.897,-1.917 -2.861,-2.86 m 16.809,-30.286 13.199,13.348 c -0.186,0.136 -0.329,0.322 -0.497,0.475 -4.131,4.132 -8.263,8.271 -12.402,12.395 0.889,1.061 1.953,1.982 2.91,2.989 0.047,0.004 0.143,0.008 0.193,0.008 4.268,-4.268 8.539,-8.546 12.81,-12.817 L 42.56,3.635 29.197,16.841 c -0.043,-0.121 -0.103,-0.239 -0.214,-0.321 -1.964,-1.95 -3.925,-3.91 -5.871,-5.871 -0.05,-0.007 -0.15,-0.021 -0.196,-0.025 -0.904,0.889 -1.8,1.778 -2.686,2.678 -0.153,0.111 -0.293,0.336 -0.082,0.468 2.007,2.021 4.014,4.043 6.046,6.039 L 12.649,33.197 -0.532,19.859 C 3.639,15.702 7.796,11.538 11.967,7.374 12.088,7.21 12.377,7.092 12.309,6.846 11.335,5.864 10.356,4.885 9.378,3.914 5.028,8.163 0.761,12.509 -3.553,16.802 L -16.902,3.289 -3.55,-9.913 c 2.093,2.085 4.161,4.189 6.268,6.253 0.999,-0.972 1.967,-1.975 2.964,-2.943 -0.004,-0.275 -0.275,-0.418 -0.433,-0.603 -1.946,-1.875 -3.788,-3.875 -5.77,-5.7 z" id="path90"/>
    <path clip-path="url(#clipPath93)" transform="matrix(1.3333333,0,0,-1.3333333,214.48773,336.13333)" style="fill:#00019a;fill-opacity:1;fill-rule:nonzero;stroke:none" d="M 0,0 C -0.592,2.325 -1.211,4.651 -1.459,7.038 -0.636,7.127 0.186,7.171 1.017,7.206 1.256,4.775 1.963,2.432 2.52,0.053 1.68,0.035 0.84,0.027 0,0 m -7.542,0.973 c -0.195,0.804 -0.407,1.6 -0.584,2.405 2.175,0.601 4.395,1.096 6.632,1.379 C -1.326,3.935 -1.149,3.121 -0.955,2.308 -3.192,2.104 -5.376,1.556 -7.542,0.973 m 5.756,-6.26 c -0.813,-0.133 -1.627,-0.257 -2.44,-0.416 -0.133,2.325 -0.575,4.615 -1.141,6.87 0.805,0.177 1.601,0.363 2.414,0.522 0.548,-2.299 1.052,-4.616 1.167,-6.976 m 2.29,-0.186 c 0.018,-0.814 0.044,-1.627 0.071,-2.441 -2.361,-0.159 -4.704,-0.583 -6.994,-1.202 -0.009,0.858 -0.027,1.706 -0.053,2.555 2.299,0.522 4.615,1.008 6.976,1.088 m -12.37,0.362 c -0.062,0.814 -0.141,1.627 -0.239,2.441 2.353,0.274 4.616,0.964 6.924,1.468 0.15,-0.805 0.283,-1.61 0.415,-2.414 -2.343,-0.575 -4.686,-1.256 -7.1,-1.495 m 2.228,-4.774 c -2.378,-0.425 -4.792,-0.602 -7.206,-0.619 0.009,0.822 0.018,1.644 0.027,2.467 2.414,-0.027 4.819,0.23 7.188,0.689 0,-0.848 0,-1.688 -0.009,-2.537 m -5.729,9.416 c 0.822,0.053 1.653,0.106 2.476,0.168 0.495,-2.343 0.689,-4.739 0.795,-7.126 -0.813,-0.053 -1.635,-0.124 -2.449,-0.204 -0.106,2.405 -0.318,4.81 -0.822,7.162 m -2.272,0.336 c -0.213,0.832 -0.425,1.663 -0.628,2.494 2.343,-0.018 4.695,0.009 7.02,0.371 0.186,-0.796 0.389,-1.591 0.584,-2.396 -2.299,-0.38 -4.651,-0.442 -6.976,-0.469 m -2.441,-2.378 c -0.398,2.467 -1.194,4.854 -1.618,7.321 0.84,-0.035 1.671,-0.08 2.511,-0.124 0.539,-2.431 1.256,-4.819 1.627,-7.286 -0.84,0.027 -1.68,0.054 -2.52,0.089 m 2.874,12.228 c 0.822,0.018 1.653,0.036 2.475,0.071 0.142,-2.352 0.469,-4.686 1.053,-6.959 -0.84,-0.061 -1.68,-0.106 -2.52,-0.132 -0.54,2.308 -0.84,4.66 -1.008,7.02 m -2.229,0.451 v 2.441 c 2.379,-0.106 4.766,-0.062 7.145,0.159 v -2.476 c -2.379,-0.177 -4.766,-0.239 -7.145,-0.124 M -8.966,5.411 c 0.496,-2.263 1.106,-4.5 1.592,-6.773 -0.805,-0.194 -1.609,-0.38 -2.405,-0.557 -0.504,2.299 -1.114,4.572 -1.618,6.871 0.813,0.15 1.618,0.309 2.431,0.459 m 1.91,3.369 c 0.08,-0.831 0.142,-1.662 0.213,-2.493 -2.282,-0.619 -4.625,-1.026 -6.986,-1.203 -0.123,0.822 -0.247,1.636 -0.344,2.458 2.413,0.159 4.792,0.601 7.117,1.238 m 5.067,6.11 c -0.044,-0.84 -0.089,-1.671 -0.124,-2.511 -2.352,-0.327 -4.624,-1.026 -6.941,-1.53 -0.009,0.84 -0.009,1.68 -0.009,2.52 2.343,0.557 4.677,1.22 7.074,1.521 M -3.731,4.784 c -0.805,-0.16 -1.592,-0.345 -2.396,-0.513 -0.407,2.219 -0.637,4.474 -0.69,6.728 0.831,0.213 1.653,0.407 2.485,0.602 -0.045,-2.29 0.247,-4.563 0.601,-6.817 M 2.264,2.529 C 2.078,3.351 1.883,4.165 1.715,4.987 3.899,5.031 6.101,5.031 8.276,4.739 12.237,4.359 15.977,2.679 19.965,2.52 l -3.05,3.006 C 16.791,5.562 16.658,5.579 16.517,5.588 15.279,5.8 14.059,6.119 12.839,6.437 7.463,7.94 1.751,7.975 -3.722,7.038 -3.784,7.861 -3.864,8.692 -3.934,9.514 1.875,10.46 7.896,10.363 13.581,8.824 l -3.324,3.281 c -2.98,0.707 -6.101,0.636 -9.152,0.592 0.027,0.822 0.062,1.636 0.098,2.458 2.024,0.027 4.049,0.044 6.065,-0.097 L 1.671,20.584 C 0.929,17.251 0.628,13.847 0.76,10.433 c -0.822,-0.07 -1.644,-0.159 -2.466,-0.247 -0.204,4.2 0.336,8.382 1.299,12.458 l -2.095,2.078 c -0.663,-3.271 -1.521,-6.516 -1.804,-9.859 -0.831,-0.168 -1.645,-0.362 -2.467,-0.557 0.106,4.28 1.512,8.347 2.113,12.547 L -7.003,29.17 C -7.321,25.677 -8.143,22.255 -8.877,18.833 -9.54,15.447 -9.514,11.99 -9.363,8.559 c -0.805,-0.133 -1.61,-0.274 -2.423,-0.398 -0.301,4.2 -0.177,8.462 0.778,12.582 0.867,3.519 1.538,7.1 1.662,10.743 l -0.203,0.195 c -0.009,-0.009 -0.018,-0.009 -0.027,-0.009 l -2.785,-2.821 c -0.044,-0.194 -0.062,-0.398 -0.053,-0.61 -0.336,-4.332 -1.91,-8.453 -2.202,-12.785 -0.079,-0.823 -0.053,-1.663 -0.212,-2.476 -0.805,-0.088 -1.618,-0.062 -2.422,-0.071 -0.036,4.448 1.255,8.701 2.015,13.033 l -3.236,-3.271 c -0.062,-0.204 -0.097,-0.425 -0.115,-0.655 -1.211,-4.597 -1.441,-9.372 -1.131,-14.102 -0.814,0.07 -1.636,0.123 -2.458,0.203 -0.292,3.775 -0.168,7.586 0.504,11.318 l -5.527,-5.588 c 1.512,-0.345 3.015,-0.708 4.545,-0.92 -0.009,-0.84 -0.009,-1.671 -0.009,-2.511 -2.219,0.309 -4.394,0.875 -6.587,1.353 l -2.166,-2.184 c 4.668,-0.77 9.24,-2.29 14.023,-2.105 0.106,-0.822 0.23,-1.644 0.354,-2.467 -5.659,-0.3 -11.008,1.751 -16.57,2.352 l -2.388,-2.422 c 4.881,-0.23 9.594,-1.618 14.395,-2.397 0.221,-0.84 0.433,-1.679 0.637,-2.528 -3.723,0.291 -7.286,1.494 -10.964,2.024 -2.14,0.266 -4.306,0.451 -6.464,0.478 l -0.769,-0.778 c 0,-0.071 0.018,-0.142 0.035,-0.212 l 1.902,-1.884 h 0.132 c 3.616,-0.07 7.206,-0.636 10.725,-1.494 3.617,-0.902 7.366,-1.229 11.088,-1.105 0.089,-0.814 0.177,-1.627 0.257,-2.441 -3.237,-0.079 -6.49,0.027 -9.665,0.655 -3.271,0.707 -6.543,1.538 -9.894,1.768 l 2.954,-2.918 c 3.899,-0.583 7.674,-1.812 11.627,-2.069 0,-0.822 -0.009,-1.644 -0.018,-2.467 -2.865,0.142 -5.65,0.814 -8.444,1.415 l 7.869,-7.781 c 0.937,3.608 1.052,7.374 0.849,11.088 0.822,-0.035 1.645,-0.062 2.467,-0.088 0.283,-4.377 -0.08,-8.807 -1.256,-13.042 l 2.052,-2.025 c 0.707,3.342 1.83,6.614 1.83,10.071 0.831,0.062 1.662,0.115 2.493,0.159 0.009,-4.226 -1.485,-8.205 -2.219,-12.317 l 2.538,-2.502 c 0.194,2.812 0.804,5.579 1.547,8.294 1.07,3.925 1.123,8.028 0.929,12.06 0.813,0.186 1.618,0.371 2.431,0.539 0.221,-3.978 0.221,-8.019 -0.663,-11.927 -0.955,-3.714 -1.945,-7.481 -1.839,-11.353 l 0.212,-0.204 2.476,2.502 c 0.345,5.615 2.873,10.903 2.573,16.597 0.831,0.159 1.653,0.318 2.493,0.46 -0.035,-2.087 -0.088,-4.191 -0.46,-6.252 -0.415,-2.688 -1.335,-5.261 -1.768,-7.931 l 3.227,3.254 c 1.654,5.199 1.919,10.796 1.291,16.198 0.831,0.045 1.654,0.08 2.485,0.106 0.451,-4.261 0.442,-8.603 -0.345,-12.829 l 7.436,7.516 c -2.122,0.38 -4.279,0.565 -6.437,0.548 -0.009,0.831 -0.018,1.653 -0.026,2.484 2.882,0.062 5.729,-0.38 8.541,-0.928 l 1.972,1.989 c -5.138,1.539 -10.558,1.884 -15.88,1.291 -0.124,0.814 -0.257,1.636 -0.416,2.441 4.244,0.424 8.577,0.468 12.785,-0.345 1.857,-0.38 3.688,-0.92 5.535,-1.335 l 2.37,2.396 C 16.455,0.407 14.324,0.902 12.211,1.485 8.975,2.361 5.606,2.591 2.264,2.529" id="path92"/>
  </g>
</svg>